<?xml version="1.0" standalone="no"?>
<!DOCTYPE svg PUBLIC "-//W3C//DTD SVG 20010904//EN"
 "http://www.w3.org/TR/2001/REC-SVG-20010904/DTD/svg10.dtd">
<svg version="1.0" xmlns="http://www.w3.org/2000/svg"
 width="2880.000000pt" height="2880.000000pt" viewBox="0 0 2880.000000 2880.000000"
 preserveAspectRatio="xMidYMid meet">
<metadata>
Created by potrace 1.14, written by Peter Selinger 2001-2017
</metadata>
<g transform="translate(0.000000,2880.000000) scale(0.100000,-0.100000)"
fill="#000000" stroke="none">
<path d="M7419 19356 c-2 -2 -35 -6 -74 -10 -66 -6 -90 -9 -160 -21 -16 -3
-46 -8 -65 -11 -19 -3 -71 -15 -115 -26 -44 -11 -84 -21 -90 -22 -25 -5 -132
-38 -150 -45 -34 -15 -90 -36 -95 -36 -9 0 -181 -77 -215 -96 -29 -16 -33 -15
-115 12 -144 49 -238 78 -275 84 -5 1 -12 3 -15 4 -3 2 -14 4 -25 6 -11 2 -58
12 -105 23 -47 11 -88 18 -92 15 -5 -2 -8 -1 -8 4 0 4 -12 9 -27 10 -28 2 -37
3 -131 17 -164 24 -275 30 -594 30 -170 1 -308 4 -308 8 0 4 -12 3 -27 -1 -16
-5 -36 -5 -45 -2 -9 3 -103 4 -208 1 -105 -3 -199 -2 -208 1 -9 4 -21 4 -25 2
-4 -3 -61 -7 -125 -9 -64 -2 -135 -6 -157 -9 -132 -14 -177 -20 -240 -30 -39
-6 -57 -9 -110 -20 -14 -3 -36 -7 -50 -10 -27 -5 -56 -12 -95 -21 -42 -9 -55
-12 -57 -14 -2 -2 -11 -3 -20 -4 -10 -1 -23 -5 -30 -9 -6 -4 -23 -8 -37 -9
-14 -1 -26 -6 -26 -11 0 -4 -5 -5 -10 -2 -6 4 -17 1 -25 -5 -8 -7 -15 -9 -15
-5 0 4 -7 1 -17 -6 -9 -8 -19 -13 -22 -12 -14 5 -203 -62 -308 -108 -23 -11
-47 -19 -52 -19 -6 0 -11 -5 -11 -12 0 -6 -3 -9 -6 -5 -3 3 -32 -8 -64 -24
-31 -16 -61 -29 -65 -29 -4 0 -19 -9 -35 -20 -15 -11 -30 -17 -34 -13 -3 3 -6
1 -6 -6 0 -7 -4 -10 -9 -7 -4 3 -19 -3 -32 -14 -12 -12 -33 -23 -46 -26 -13
-4 -23 -9 -23 -13 0 -4 -16 -13 -35 -21 -19 -8 -35 -17 -35 -20 0 -4 -12 -12
-26 -19 -15 -6 -60 -34 -101 -61 -40 -28 -78 -50 -84 -50 -6 0 -7 -4 -4 -10 3
-5 0 -10 -8 -10 -7 0 -23 -9 -35 -20 -12 -11 -25 -20 -31 -20 -5 0 -12 -7 -15
-16 -4 -9 -9 -14 -12 -11 -3 3 -14 -2 -24 -11 -10 -9 -33 -29 -51 -44 -119
-94 -296 -253 -353 -316 -12 -13 -48 -52 -81 -88 -89 -95 -255 -298 -255 -312
0 -4 -10 -18 -22 -32 -32 -35 -148 -214 -148 -227 0 -6 -3 -13 -8 -15 -10 -4
-92 -144 -92 -157 0 -6 -4 -11 -10 -11 -5 0 -9 -3 -8 -7 1 -5 -11 -33 -27 -63
-16 -30 -29 -57 -30 -60 0 -3 -16 -36 -35 -75 -18 -38 -34 -74 -36 -80 -1 -5
-16 -44 -34 -85 -34 -80 -126 -349 -134 -390 -3 -14 -9 -40 -15 -57 -5 -18 -8
-33 -6 -33 2 0 -2 -18 -10 -40 -8 -22 -19 -68 -26 -103 -14 -78 -17 -92 -19
-92 -1 0 -3 -16 -5 -35 -2 -19 -6 -46 -9 -59 -3 -12 -8 -44 -11 -70 -4 -25 -8
-59 -11 -76 -3 -28 -9 -90 -19 -205 -6 -67 -6 -446 0 -515 12 -149 28 -276 46
-378 5 -32 12 -71 14 -87 2 -16 6 -34 9 -39 3 -5 8 -24 11 -42 2 -19 9 -52 15
-74 6 -22 13 -51 16 -64 3 -13 9 -32 14 -41 5 -10 7 -20 4 -23 -3 -3 -1 -14 5
-25 12 -22 22 -72 25 -119 1 -18 5 -35 8 -39 4 -3 5 -11 3 -17 -2 -7 -6 -37
-9 -67 -3 -30 -10 -70 -15 -87 -5 -18 -7 -33 -4 -33 3 0 0 -6 -6 -13 -6 -8 -8
-17 -4 -20 3 -4 0 -7 -7 -7 -7 0 -11 -3 -8 -6 9 -8 -30 -114 -48 -132 -9 -8
-23 -27 -32 -41 -17 -27 -102 -142 -112 -151 -3 -3 -21 -27 -40 -55 -19 -27
-40 -57 -47 -65 -26 -33 -176 -237 -202 -277 -16 -23 -31 -40 -35 -36 -3 3 -6
0 -6 -7 0 -7 -16 -32 -35 -56 -19 -23 -35 -47 -35 -52 0 -5 -7 -12 -15 -16 -8
-3 -15 -12 -15 -20 0 -8 -6 -19 -12 -23 -21 -13 -111 -151 -124 -190 -14 -41
-12 -157 4 -175 6 -7 10 -17 11 -21 1 -19 50 -67 91 -87 44 -22 53 -23 450
-26 223 -2 419 -5 435 -7 17 -2 34 -1 40 2 5 3 26 6 45 8 35 3 69 8 105 16 11
3 40 8 65 13 25 4 47 8 50 9 18 4 79 16 100 20 29 6 164 33 200 40 14 3 43 8
65 11 l40 5 38 -153 c21 -84 39 -160 42 -168 13 -51 73 -219 112 -319 26 -64
46 -117 45 -119 -2 -1 4 -10 13 -18 8 -9 15 -24 15 -33 0 -10 7 -24 15 -31 8
-7 13 -16 10 -20 -3 -5 2 -16 11 -24 8 -9 13 -16 10 -16 -3 0 8 -24 24 -52 16
-29 41 -76 55 -104 14 -29 36 -68 49 -87 13 -19 36 -56 52 -83 15 -27 31 -51
35 -54 3 -3 14 -20 23 -37 9 -18 21 -33 26 -33 6 0 10 -5 10 -11 0 -6 29 -50
65 -97 86 -116 103 -137 197 -246 49 -57 276 -286 283 -286 2 0 23 -18 45 -40
22 -22 43 -40 45 -40 5 0 41 -29 87 -72 17 -16 33 -28 37 -28 4 0 16 -8 27
-18 23 -21 193 -142 199 -142 3 0 35 -19 72 -43 120 -77 413 -230 441 -230 6
0 12 -5 12 -10 0 -6 3 -8 6 -5 3 4 29 -5 58 -18 49 -22 203 -81 236 -89 8 -3
60 -18 116 -34 55 -17 109 -32 120 -34 10 -2 26 -7 34 -10 27 -10 258 -54 335
-63 127 -15 215 -29 223 -34 3 -3 11 -5 62 -14 25 -5 53 -10 63 -12 49 -11 60
-14 75 -18 9 -3 40 -8 67 -12 80 -11 90 -12 90 -14 0 -1 16 -3 35 -5 19 -1 35
-3 35 -4 0 -3 25 -5 175 -16 179 -14 576 -8 666 9 29 6 146 19 172 20 12 1 22
3 22 7 0 3 10 5 23 6 12 1 40 4 62 8 22 4 46 7 53 8 6 0 12 4 12 8 0 4 8 6 18
4 9 -1 22 0 27 3 6 4 19 7 30 8 11 1 49 9 85 19 36 10 71 18 78 18 6 0 12 3
12 7 0 3 8 7 18 8 21 2 42 7 62 15 73 27 175 55 184 50 31 -16 122 -79 128
-88 5 -7 8 -7 8 0 0 6 5 2 11 -7 5 -10 17 -18 24 -18 8 0 15 -4 15 -10 0 -5 6
-10 13 -10 6 0 24 -10 39 -23 14 -12 46 -34 70 -49 58 -37 68 -44 165 -111 46
-31 87 -57 92 -57 4 0 16 -9 26 -20 10 -11 22 -17 26 -14 5 3 9 0 9 -6 0 -6
12 -16 28 -23 15 -6 38 -22 52 -34 14 -13 30 -23 37 -23 7 0 13 -4 13 -10 0
-5 7 -10 15 -10 8 0 15 -3 15 -8 0 -10 47 -29 100 -39 70 -14 946 -9 996 5 22
7 56 28 76 47 67 67 77 142 39 285 -11 41 -33 127 -50 190 -36 141 -85 326
-105 402 -8 31 -18 67 -20 80 -3 12 -12 48 -21 78 -9 30 -17 65 -18 78 -1 12
-5 22 -10 22 -5 0 -7 6 -4 13 2 6 -2 24 -9 38 -7 15 -11 29 -8 31 2 3 -3 27
-12 54 -23 65 -22 256 1 359 4 17 8 36 8 43 0 6 4 12 9 12 5 0 7 4 3 9 -3 5
-1 12 5 16 5 3 10 14 10 24 0 10 7 24 15 31 8 7 12 16 9 21 -3 5 -2 9 3 9 4 0
19 17 33 37 14 21 32 44 40 53 18 19 30 35 101 141 98 148 129 199 123 199 -4
0 0 8 8 18 18 21 147 283 181 367 13 33 28 69 32 80 5 11 9 23 10 28 2 4 4 9
5 12 1 3 3 8 4 13 1 4 4 12 7 17 7 12 28 76 30 90 1 6 6 19 12 30 6 11 11 25
12 30 0 6 7 30 15 55 8 25 15 50 16 55 3 26 18 71 27 83 5 6 7 12 4 12 -3 0 1
28 10 63 8 34 17 71 19 82 9 37 22 104 30 155 3 19 7 42 9 50 2 8 7 42 10 75
4 33 8 67 10 75 26 101 26 686 0 855 -2 17 -7 53 -10 80 -7 55 -9 72 -20 126
-7 37 -7 37 52 65 32 15 60 31 63 34 6 6 83 49 117 65 13 5 23 13 23 18 0 4 7
7 15 7 8 0 15 3 15 8 0 4 17 16 37 27 20 11 41 25 47 30 6 6 34 26 61 45 28
19 55 39 61 45 6 5 28 24 48 40 100 79 230 204 316 306 30 35 61 68 68 72 6 4
12 15 12 22 0 8 4 15 8 15 5 0 36 39 70 88 34 48 65 92 69 98 50 67 231 410
237 448 1 6 5 16 8 22 4 6 14 33 23 60 9 27 19 56 22 64 24 61 41 116 37 122
-3 5 0 8 7 8 7 0 10 3 7 6 -4 3 -2 20 3 37 12 40 21 78 22 95 0 6 4 12 9 12 5
0 7 4 4 8 -3 4 0 28 6 53 6 24 11 53 12 64 2 17 11 69 21 127 28 149 27 563
-1 748 -3 19 -7 44 -8 55 -13 104 -91 411 -117 457 -5 10 -9 25 -9 33 0 8 -4
23 -9 33 -6 9 -29 62 -52 117 -37 88 -78 171 -145 295 -11 19 -22 37 -26 38
-5 2 -8 10 -8 18 0 8 -4 14 -10 14 -5 0 -10 5 -10 10 0 12 -81 134 -92 138 -5
2 -8 10 -8 17 0 7 -3 15 -8 17 -4 2 -26 28 -50 58 -96 123 -214 248 -348 368
-44 40 -85 72 -90 72 -5 0 -15 9 -22 20 -7 11 -17 20 -22 20 -9 0 -35 19 -65
48 -8 6 -18 12 -24 12 -6 0 -11 5 -11 10 0 6 -7 10 -15 10 -8 0 -15 4 -15 9 0
5 -11 12 -25 15 -14 4 -25 10 -25 15 0 5 -12 16 -27 24 -16 7 -46 24 -68 37
-60 34 -244 130 -250 130 -3 0 -18 6 -34 14 -16 9 -31 12 -35 9 -3 -4 -6 -2
-6 4 0 6 -12 13 -27 16 -23 5 -168 54 -168 58 0 0 -7 2 -15 4 -41 10 -58 15
-90 25 -19 6 -45 13 -57 16 -13 2 -35 7 -50 10 -58 12 -110 22 -178 33 -38 6
-86 14 -105 17 -38 7 -1334 16 -1341 10z"/>
<path d="M11389 15991 c0 -3 -2 -536 -2 -1184 -1 -777 1 -1181 8 -1185 16 -10
1836 -8 1842 2 5 7 8 425 4 526 l-1 25 -535 -2 -535 -3 0 323 c-1 177 -1 588
-1 913 l-1 591 -389 0 c-214 0 -389 -3 -390 -6z"/>
<path d="M14308 15395 c-2 -2 -34 -6 -73 -9 -80 -8 -95 -10 -200 -32 -52 -10
-159 -47 -175 -60 -8 -7 -27 -16 -42 -19 -16 -4 -28 -10 -28 -14 0 -4 -14 -15
-30 -25 -28 -16 -86 -70 -117 -109 -15 -18 -73 -137 -67 -137 2 0 -1 -12 -7
-27 -15 -40 -22 -135 -11 -142 18 -11 641 -6 652 5 6 6 12 20 15 32 18 98 150
145 325 117 44 -7 84 -29 111 -61 19 -23 20 -94 0 -127 -32 -57 -147 -97 -326
-112 -74 -7 -93 -9 -165 -21 -25 -4 -56 -8 -70 -10 -19 -2 -137 -28 -157 -33
-2 -1 -5 -2 -8 -2 -3 -1 -8 -2 -12 -4 -5 -1 -26 -5 -48 -10 -22 -4 -44 -11
-50 -15 -5 -4 -31 -13 -58 -20 -26 -7 -50 -17 -53 -22 -3 -4 -10 -6 -15 -3 -5
4 -9 2 -9 -4 0 -5 -10 -13 -22 -17 -46 -14 -182 -173 -183 -213 0 -3 -4 -11
-7 -17 -27 -42 -40 -213 -24 -309 6 -36 29 -102 50 -143 21 -40 115 -142 131
-142 8 0 15 -4 17 -9 3 -8 102 -62 113 -61 3 0 21 -7 41 -15 20 -8 46 -15 59
-15 12 0 25 -3 29 -7 3 -4 16 -8 29 -10 45 -6 253 -5 297 2 72 10 184 37 196
46 6 5 19 10 30 12 44 8 173 83 233 136 26 23 42 17 48 -16 1 -10 5 -31 8 -48
2 -16 6 -39 9 -50 2 -11 5 -25 5 -30 1 -7 119 -10 349 -9 191 1 352 2 359 3
18 2 6 24 -36 70 -21 22 -38 46 -38 53 0 7 -3 27 -7 43 -7 38 -9 802 -1 815 3
5 1 11 -4 15 -7 3 -7 15 -1 29 5 13 6 26 4 29 -3 3 -7 52 -9 109 -2 56 -6 117
-9 133 -3 17 -7 39 -9 50 -5 29 -18 77 -24 95 -3 8 -7 21 -9 28 -5 28 -94 142
-110 142 -3 0 -23 12 -43 28 -74 55 -201 103 -316 117 -32 4 -72 10 -89 12
-33 5 -444 11 -448 8z m373 -1032 c1 -10 0 -22 -1 -28 -1 -5 -3 -30 -6 -55
-15 -166 -61 -255 -150 -295 -73 -33 -176 -38 -252 -12 -66 22 -78 30 -98 69
-30 58 -13 149 35 185 21 16 100 54 123 59 10 2 26 6 36 9 9 3 55 13 102 24
47 10 110 27 140 38 71 26 70 26 71 6z"/>
<path d="M16815 15385 c-171 -37 -282 -109 -430 -281 l-20 -24 -1 133 0 132
-315 3 -315 2 1 -867 0 -868 343 0 c188 0 342 2 343 5 0 3 2 226 4 495 1 270
5 501 9 515 3 14 8 37 12 53 13 62 58 123 109 146 41 19 50 21 129 24 51 2 77
-1 102 -15 19 -10 34 -15 34 -12 0 4 16 -11 35 -31 31 -34 63 -105 72 -160 2
-11 5 -243 7 -515 1 -272 4 -497 5 -500 2 -8 669 -6 677 3 9 8 9 1050 0 1157
-6 81 -9 98 -25 155 -6 21 -8 42 -5 47 3 4 0 8 -5 8 -6 0 -11 7 -11 16 0 23
-57 133 -93 180 -61 79 -200 166 -304 188 -15 4 -39 9 -53 12 -54 12 -247 11
-305 -1z"/>
<path d="M18530 15385 c-326 -69 -504 -262 -586 -635 -21 -95 -25 -333 -8
-410 7 -30 15 -66 18 -80 8 -48 85 -221 106 -240 3 -3 17 -21 30 -40 83 -119
211 -209 358 -251 126 -36 342 -41 424 -10 13 5 28 10 33 11 31 8 46 14 111
46 39 19 89 50 111 69 22 19 42 32 45 30 2 -2 3 -55 1 -117 -6 -264 -78 -353
-285 -350 -71 2 -158 33 -158 57 0 7 -7 18 -15 25 -8 6 -13 17 -12 23 1 9 -90
12 -341 12 -189 1 -345 -2 -347 -5 -11 -17 43 -154 75 -194 23 -28 94 -98 122
-121 49 -39 174 -105 199 -105 8 0 19 -3 23 -7 4 -5 12 -9 17 -9 5 -1 10 -2
12 -4 1 -1 10 -3 21 -5 10 -2 39 -8 65 -14 25 -6 62 -13 81 -15 19 -3 35 -5
35 -6 0 -1 41 -4 90 -7 156 -10 353 -6 393 9 17 6 21 5 16 -4 -4 -6 -3 -8 2
-5 6 3 52 13 104 22 52 9 99 19 105 23 5 3 16 7 23 8 24 4 134 64 176 96 67
52 122 112 159 176 31 54 50 115 83 282 4 19 9 412 11 873 l4 837 -303 -2
-303 -3 -1 -105 c-1 -58 -2 -105 -3 -105 -1 -1 -34 31 -75 70 -87 82 -87 82
-151 117 -100 53 -171 71 -295 73 -63 1 -140 -3 -170 -10z m462 -498 c18 -8
37 -16 43 -18 13 -6 47 -41 71 -75 21 -31 38 -69 50 -119 4 -16 9 -37 11 -45
6 -25 6 -152 -1 -193 -6 -40 -43 -132 -61 -155 -55 -70 -116 -101 -202 -106
-145 -7 -238 69 -282 229 -6 22 -9 87 -7 145 5 131 32 220 87 282 21 23 39 39
39 33 0 -5 4 -4 8 3 23 35 176 47 244 19z"/>
<path d="M23228 15395 c-2 -2 -36 -6 -75 -10 -69 -6 -108 -12 -108 -15 0 -1
-16 -3 -35 -6 -96 -12 -248 -69 -325 -122 -109 -75 -194 -205 -199 -304 0 -10
-3 -18 -6 -18 -8 0 -9 -94 0 -100 6 -4 578 -5 643 -1 11 1 17 9 17 24 0 22 22
61 51 90 56 55 246 67 342 21 49 -23 76 -86 62 -141 -11 -46 -101 -102 -190
-118 -50 -9 -103 -17 -141 -20 -71 -6 -148 -15 -174 -20 -14 -3 -41 -7 -60
-10 -43 -5 -164 -31 -207 -44 -17 -5 -34 -7 -37 -3 -3 3 -6 1 -6 -5 0 -5 -6
-10 -12 -11 -15 -1 -53 -10 -53 -12 0 -1 -8 -3 -18 -5 -48 -9 -160 -77 -196
-119 -9 -10 -26 -29 -38 -42 -13 -13 -23 -30 -23 -39 0 -8 -4 -15 -9 -15 -8 0
-21 -27 -37 -75 -27 -79 -35 -195 -21 -290 5 -32 7 -39 39 -122 47 -123 222
-248 388 -278 80 -14 112 -17 175 -18 90 0 240 13 253 23 1 2 11 3 21 4 11 0
23 4 27 9 4 4 15 7 25 7 50 0 282 128 313 172 14 20 14 20 26 -2 6 -12 10 -31
7 -41 -3 -10 -1 -22 4 -25 5 -3 9 -11 8 -17 -1 -7 1 -28 5 -47 l7 -35 357 0
c393 0 384 -1 327 60 -36 40 -49 56 -54 75 -5 16 -9 227 -15 780 -2 201 -6
379 -10 395 -3 17 -9 41 -12 55 -3 14 -8 36 -10 49 -13 66 -68 151 -130 201
-60 48 -178 106 -259 126 -16 4 -32 8 -35 9 -3 1 -27 4 -55 8 -27 4 -66 10
-85 13 -35 6 -457 13 -462 9z m369 -1035 c-3 -11 -1 -23 4 -26 5 -3 7 -9 4
-14 -3 -4 -7 -25 -10 -46 -10 -87 -19 -121 -40 -169 -23 -50 -56 -95 -70 -95
-5 0 -16 -6 -24 -14 -21 -19 -116 -42 -166 -40 -119 4 -199 47 -213 113 -7 35
-8 56 -3 66 3 6 7 19 9 30 3 22 60 85 76 85 6 0 24 7 40 15 31 16 112 41 161
49 17 2 45 9 63 15 17 5 32 8 32 6 0 -1 28 7 63 20 79 29 80 29 74 5z"/>
<path d="M25225 15390 c-134 -26 -288 -88 -322 -130 -7 -8 -13 -11 -13 -7 0
15 -101 -97 -139 -153 -41 -62 -84 -147 -84 -167 0 -7 -3 -13 -7 -13 -5 0 -19
-44 -35 -110 -3 -11 -16 -76 -20 -95 -2 -11 -4 -20 -5 -20 -4 0 -13 -213 -10
-225 1 -3 3 -30 5 -60 4 -61 30 -184 45 -215 5 -11 20 -45 33 -76 34 -77 117
-193 171 -238 10 -9 27 -24 38 -33 10 -10 22 -18 27 -18 5 0 14 -7 21 -15 32
-39 213 -104 305 -111 28 -1 52 -4 55 -4 11 -4 147 1 175 6 139 23 260 76 337
147 17 15 33 26 35 23 9 -9 10 -56 1 -56 -5 0 -5 -6 0 -16 5 -9 6 -34 2 -55
-4 -22 -3 -39 2 -39 5 0 6 -5 3 -11 -6 -9 -11 -40 -17 -106 -3 -34 -57 -120
-87 -141 -116 -76 -325 -53 -359 40 l-12 34 -345 0 -346 0 5 -27 c21 -137 130
-267 296 -357 52 -28 156 -66 210 -76 14 -3 35 -7 46 -10 12 -2 38 -7 59 -10
20 -4 41 -9 46 -12 5 -3 9 0 9 7 0 8 4 8 13 1 7 -6 25 -9 40 -8 15 2 30 -1 33
-6 3 -5 12 -4 20 3 8 6 14 8 14 3 0 -10 223 -9 320 1 90 9 115 13 115 15 0 1
11 3 25 5 46 5 93 16 109 24 9 5 21 10 26 10 29 5 55 14 55 20 0 4 6 8 13 8
24 0 123 72 185 134 57 56 116 154 127 209 2 12 6 29 9 38 8 27 17 74 21 107
2 17 4 30 5 30 1 0 3 18 4 40 1 22 4 45 7 50 3 6 5 372 5 815 l-1 805 -303 3
-303 2 1 -57 c3 -112 0 -163 -10 -163 -5 0 -10 6 -10 13 0 15 -76 89 -135 133
-68 49 -160 92 -240 110 -37 9 -230 11 -270 4z m408 -495 c32 -7 99 -43 105
-56 2 -4 14 -20 27 -35 27 -32 63 -123 69 -180 3 -21 7 -48 9 -59 3 -11 0 -28
-5 -37 -6 -12 -5 -18 2 -18 6 0 9 -4 5 -9 -6 -10 -15 -62 -17 -98 -1 -13 -6
-23 -12 -23 -5 0 -7 -3 -3 -6 7 -7 -36 -88 -61 -118 -21 -23 -69 -57 -85 -60
-7 -2 -19 -6 -27 -10 -36 -15 -149 -12 -184 5 -20 9 -36 15 -36 13 0 -3 -16
10 -36 28 -33 30 -91 128 -76 128 4 0 2 4 -5 8 -6 4 -13 22 -16 40 -3 19 -8
36 -11 40 -3 3 -1 11 5 19 6 7 7 13 2 13 -5 0 -9 14 -8 30 0 17 4 30 9 30 5 0
3 6 -3 13 -6 8 -8 16 -5 20 3 3 8 25 10 49 8 77 32 158 46 158 4 0 8 6 8 13 0
24 68 80 121 97 50 17 105 19 172 5z"/>
<path d="M27646 15393 c-3 -3 -20 -6 -38 -8 -54 -4 -138 -22 -183 -39 -11 -5
-38 -15 -60 -23 -53 -19 -191 -98 -235 -135 -111 -92 -192 -191 -245 -300 -19
-38 -31 -68 -29 -68 3 0 -1 -10 -7 -22 -14 -27 -35 -115 -45 -188 -8 -68 -12
-250 -4 -250 3 0 6 -21 7 -47 5 -95 85 -318 128 -353 8 -7 15 -16 15 -21 0
-32 222 -229 258 -229 6 0 12 -3 14 -7 4 -9 86 -51 108 -55 8 -2 17 -6 20 -9
6 -6 111 -38 150 -45 14 -2 34 -6 45 -9 51 -11 150 -18 260 -17 103 1 200 7
200 13 0 1 11 3 25 5 32 4 75 12 75 14 0 1 9 3 19 5 17 3 58 14 76 20 3 1 18
7 33 13 16 7 33 12 38 12 6 0 46 18 90 39 43 22 79 38 79 35 0 -2 9 4 20 14
11 9 41 35 68 57 26 22 61 57 77 77 17 21 38 48 47 59 24 29 74 136 82 175 l7
31 -330 1 c-183 0 -331 -4 -331 -9 0 -5 -9 -19 -19 -31 -11 -13 -28 -33 -39
-45 -30 -36 -118 -65 -199 -66 -41 0 -78 4 -86 11 -8 7 -16 9 -19 6 -11 -10
-103 48 -142 89 -47 50 -85 132 -88 190 l-3 42 650 1 c358 1 654 2 659 3 7 1
0 207 -9 220 -2 4 -6 27 -10 51 -3 25 -14 70 -23 100 -9 30 -17 57 -17 60 -1
3 -5 14 -9 25 -18 46 -29 71 -42 95 -7 14 -19 37 -25 53 -6 15 -15 27 -20 27
-5 0 -9 6 -9 13 0 14 -87 126 -129 165 -84 79 -187 144 -294 186 -77 30 -243
70 -258 61 -5 -4 -9 -3 -9 2 0 8 -286 14 -294 6z m279 -442 c97 -43 181 -156
180 -246 l0 -29 -300 -1 c-165 0 -305 1 -311 3 -32 9 18 160 72 216 28 29 96
64 149 76 57 13 158 4 210 -19z"/>
<path d="M20198 15338 c-7 -19 -2 -1200 5 -1218 4 -11 24 -104 32 -150 1 -3 8
-21 17 -41 9 -20 19 -45 22 -57 4 -12 12 -22 18 -22 6 0 8 -3 5 -6 -25 -25
204 -237 235 -218 4 3 8 1 8 -4 0 -5 10 -12 23 -15 12 -3 40 -11 62 -17 107
-29 264 -31 415 -4 57 10 121 34 179 66 52 30 201 168 201 186 0 6 6 12 13 15
9 3 12 -12 12 -57 0 -33 -3 -66 -7 -72 -4 -6 -4 -14 0 -18 4 -4 7 -22 8 -39 1
-18 2 -37 3 -42 1 -7 112 -10 318 -10 l317 0 1 63 c1 34 -3 62 -8 62 -4 0 -5
6 0 13 11 17 10 101 -2 109 -7 5 -6 8 0 8 12 0 14 88 2 106 -3 6 -3 14 0 18
11 11 9 126 -2 126 -7 0 -6 3 0 8 6 4 11 39 11 77 0 39 -5 73 -11 77 -6 5 -6
8 0 8 6 0 10 52 10 140 0 77 -4 140 -9 140 -5 0 -4 6 1 13 10 13 11 102 1 113
-4 3 -3 16 1 28 9 27 8 77 -2 94 -5 6 -4 12 0 12 10 0 10 90 0 106 -3 6 -3 14
0 18 11 11 9 146 -2 146 -7 0 -6 3 0 8 6 4 11 43 11 87 0 44 -5 83 -11 87 -7
5 -6 8 1 8 6 0 10 12 9 28 l-1 27 -345 0 -344 0 -2 -470 c-1 -434 -3 -493 -16
-550 -22 -94 -36 -122 -87 -176 -31 -34 -106 -52 -184 -46 -86 6 -123 23 -164
73 -50 60 -56 105 -56 436 -1 142 -5 258 -10 258 -5 0 -4 6 1 13 5 6 9 112 9
237 l-1 225 -341 3 c-271 2 -343 0 -346 -10z"/>
<path d="M11495 12842 l-91 -3 1 -269 0 -270 -80 -1 c-44 0 -99 0 -122 1 -41
1 -43 0 -44 -27 -1 -33 -1 -294 0 -340 l1 -32 122 -3 122 -3 3 -465 c1 -256 4
-478 7 -495 14 -92 20 -115 42 -164 13 -30 37 -66 53 -81 35 -34 106 -75 146
-85 91 -21 135 -28 192 -29 29 -1 53 -3 53 -6 0 -3 47 -5 105 -5 58 0 105 -2
105 -5 0 -3 18 -5 40 -5 22 0 40 3 40 7 0 4 11 3 25 -2 16 -6 25 -6 25 1 0 6
6 6 18 0 10 -5 24 -6 32 -1 7 4 23 4 35 0 14 -5 27 -4 34 3 7 7 11 7 11 1 0
-6 10 -10 22 -9 14 1 24 10 28 26 4 19 5 416 1 464 -1 6 -38 10 -93 10 -95 -1
-159 14 -191 42 -34 32 -40 89 -41 451 l-1 352 168 0 167 0 0 201 0 200 -72
-1 c-40 -1 -116 -1 -168 -1 l-95 1 1 270 0 269 -255 3 c-141 2 -297 2 -346 0z"/>
<path d="M13480 12339 c0 -3 -11 -5 -25 -4 -14 2 -27 -1 -31 -6 -3 -5 -10 -7
-15 -4 -5 4 -14 3 -21 -1 -6 -4 -23 -8 -37 -10 -75 -8 -232 -72 -298 -121 -18
-13 -33 -21 -33 -17 0 4 -11 -5 -25 -20 -13 -14 -27 -26 -31 -26 -12 0 -113
-112 -144 -160 -16 -25 -34 -50 -40 -57 -5 -7 -10 -15 -10 -19 0 -4 -11 -30
-25 -59 -30 -65 -63 -181 -72 -260 -9 -74 -9 -254 -1 -316 25 -186 106 -354
229 -479 59 -58 199 -155 242 -165 15 -4 27 -11 27 -15 0 -4 10 -10 23 -13 12
-3 53 -14 90 -26 101 -30 173 -42 259 -45 32 0 58 -4 58 -8 0 -3 8 -4 18 -2 9
2 62 6 117 8 55 2 100 5 100 6 0 3 69 12 93 12 12 0 22 5 22 11 0 6 3 8 6 5 7
-8 121 25 162 46 17 9 34 16 37 16 9 -2 135 70 156 89 235 200 332 419 330
741 0 52 -2 113 -5 135 -11 89 -19 125 -27 125 -5 0 -6 7 -3 15 4 8 1 22 -6
30 -7 8 -10 15 -6 15 4 0 0 13 -9 30 -8 16 -15 31 -14 32 7 10 -85 163 -122
203 -60 66 -79 84 -128 123 -29 23 -59 42 -66 42 -8 0 -15 4 -17 9 -4 14 -149
81 -160 75 -4 -3 -8 -1 -8 4 0 9 -110 38 -215 58 -51 9 -375 13 -375 3z m238
-463 c73 -16 157 -98 190 -186 47 -122 56 -282 27 -441 -9 -45 -31 -107 -47
-131 -10 -14 -18 -30 -18 -34 0 -19 -86 -83 -124 -93 -78 -22 -130 -20 -192 5
-132 53 -196 195 -197 434 -1 137 14 214 58 300 60 117 177 174 303 146z"/>
<path d="M16658 12345 c-2 -2 -24 -6 -49 -9 -93 -12 -247 -73 -286 -112 -8 -8
-17 -14 -21 -14 -11 0 -95 -82 -128 -125 -59 -77 -130 -214 -138 -266 -1 -8
-4 -18 -8 -24 -3 -5 -9 -30 -13 -55 -4 -25 -9 -54 -12 -65 -21 -90 -20 -320 2
-405 3 -14 8 -37 10 -52 2 -16 13 -48 24 -73 11 -25 18 -45 15 -45 -8 0 50
-105 89 -160 73 -102 196 -201 297 -239 19 -7 44 -17 55 -22 71 -30 299 -45
400 -25 58 12 120 29 140 40 11 6 22 11 25 11 27 4 142 83 167 115 10 13 13 9
14 -20 2 -50 1 -194 -2 -200 -1 -3 -3 -9 -4 -15 -11 -68 -18 -96 -26 -101 -5
-3 -7 -9 -4 -14 7 -11 -61 -77 -100 -98 -19 -9 -64 -16 -121 -18 -80 -3 -97
-1 -135 19 -27 14 -52 37 -64 59 l-19 36 -347 1 -346 1 17 -57 c22 -76 42
-123 52 -123 4 0 8 -5 8 -11 0 -22 111 -126 177 -165 94 -56 225 -103 333
-119 33 -5 91 -14 138 -20 83 -12 325 -7 467 9 78 9 202 45 280 81 28 12 53
23 58 24 4 0 15 9 26 19 10 9 33 28 51 42 19 14 51 48 72 75 21 28 42 55 46
60 5 6 9 13 10 18 1 4 9 24 18 45 9 20 17 42 18 47 12 45 20 71 24 79 3 5 6
21 7 35 2 14 6 46 10 71 4 25 9 83 11 130 3 66 7 1233 4 1532 l0 57 -306 0
-305 0 1 -22 c1 -12 2 -62 1 -110 l-1 -88 -62 64 c-70 73 -172 142 -238 162
-3 1 -29 9 -59 18 -29 9 -57 14 -62 12 -4 -3 -10 -1 -13 3 -5 8 -191 14 -198
7z m392 -507 c32 -7 91 -51 122 -91 18 -23 32 -44 32 -47 -1 -3 2 -16 7 -29
14 -36 27 -99 22 -105 -3 -2 -2 -10 3 -17 9 -14 12 -129 3 -135 -3 -2 -6 -18
-7 -36 0 -17 -6 -42 -11 -55 -6 -13 -17 -35 -23 -50 -31 -68 -89 -120 -153
-138 -57 -16 -168 -13 -189 4 -10 9 -20 14 -23 12 -3 -2 -14 2 -26 10 -19 13
-29 23 -69 71 -34 40 -60 143 -60 233 1 116 14 190 47 255 59 116 167 155 325
118z"/>
<path d="M19069 12346 c-2 -2 -29 -6 -59 -9 -89 -10 -120 -17 -215 -48 -222
-74 -390 -213 -488 -403 -17 -34 -32 -63 -32 -66 -1 -3 -4 -12 -7 -20 -50
-135 -67 -244 -62 -409 4 -164 9 -197 46 -306 22 -64 78 -178 90 -183 5 -2 8
-8 8 -13 0 -18 164 -189 182 -189 3 0 13 -6 20 -13 7 -7 24 -18 38 -25 14 -7
39 -20 55 -30 30 -18 132 -61 156 -66 8 -2 23 -7 33 -11 10 -5 31 -9 45 -11
14 -1 26 -3 26 -4 0 -2 35 -10 75 -16 68 -10 346 -12 395 -3 28 5 66 12 85 14
19 2 49 9 65 15 17 6 30 11 30 10 0 -5 62 14 73 23 6 5 12 7 12 4 0 -10 151
73 205 112 165 118 288 326 319 536 4 23 9 52 12 65 7 35 7 227 -1 275 -3 22
-7 49 -9 60 -16 97 -68 231 -120 308 -14 20 -23 37 -21 37 4 0 -7 12 -90 99
-47 49 -172 141 -192 141 -5 0 -14 5 -21 12 -6 6 -28 18 -49 25 -38 14 -179
61 -188 62 -3 1 -6 1 -7 2 -51 15 -396 37 -409 25z m237 -491 c64 -31 115 -96
150 -190 23 -63 29 -114 29 -245 0 -127 -18 -225 -53 -295 -22 -44 -73 -105
-88 -105 -7 0 -14 -4 -16 -10 -5 -15 -116 -39 -162 -35 -115 12 -204 95 -242
225 -21 74 -27 119 -29 235 -2 123 15 207 58 292 28 55 91 123 114 123 7 0 13
4 13 8 0 5 6 9 13 10 16 1 59 11 63 14 11 12 106 -5 150 -27z"/>
</g>
</svg>
