<svg style="display: none;" aria-hidden="true" xmlns="http://www.w3.org/2000/svg" xmlns:xlink="http://www.w3.org/1999/xlink"><symbol viewBox="0 0 120 40" fill="none" id="logo" xmlns="http://www.w3.org/2000/svg">
<path fill-rule="evenodd" clip-rule="evenodd" d="M47.519 26.3285V28.515H46.4934V30.1247H47.519V33.0622C47.519 35.4901 47.9489 35.5437 51.7601 35.5437V33.545H51.3028C50.499 33.545 50.4019 33.317 50.4019 32.6732V30.1247H51.7879V28.515H50.4019V26.3285H47.519ZM56.9161 30.1917C57.6507 30.1917 58.1358 30.9295 58.1358 31.9622C58.1358 33.2901 57.6646 33.8671 56.8883 33.8671C56.1538 33.8671 55.6411 33.2901 55.6411 31.9622C55.6411 31.1709 55.9319 30.1917 56.9161 30.1917ZM52.7582 32.1097C52.7582 34.5109 54.5598 35.7449 56.8883 35.7449C59.2168 35.7449 61.0185 34.5376 61.0185 31.9622C61.0185 29.7759 59.4384 28.3137 56.8744 28.3137C54.4213 28.3137 52.7582 29.6686 52.7582 32.1097ZM70.6232 30.3124C71.5379 30.3124 71.8429 31.05 71.8429 31.8282C71.8429 32.5792 71.5104 33.2767 70.6232 33.2767C69.8333 33.2767 69.4869 32.6061 69.4869 31.9087C69.4869 30.9965 69.7502 30.3124 70.6232 30.3124ZM66.9783 35.9059C67.1167 36.9386 68.1977 37.9312 70.7619 37.9312C74.3377 37.9312 74.5871 36.2815 74.5871 34.1755V28.515H72.0509V29.4404C71.8007 29.0985 71.4708 28.8183 71.088 28.6225C70.7051 28.4268 70.2801 28.321 69.8472 28.3137C67.4632 28.3137 66.604 30.1513 66.604 31.8818C66.604 33.6793 67.7543 35.2084 69.7641 35.2084C70.8034 35.2084 71.4272 34.8462 71.8429 34.4437V35.0206C71.8429 36.0267 71.5104 36.3889 70.6788 36.3889C70.1244 36.3889 69.9164 36.1473 69.8747 35.9059H66.9783ZM79.9925 30.1917C80.727 30.1917 81.2121 30.9295 81.2121 31.9622C81.2121 33.2901 80.7409 33.8671 79.9647 33.8671C79.2301 33.8671 78.7174 33.2901 78.7174 31.9622C78.7174 31.1709 79.0083 30.1917 79.9925 30.1917ZM75.8345 32.1097C75.8345 34.5109 77.6362 35.7449 79.9647 35.7449C82.2931 35.7449 84.0948 34.5376 84.0948 31.9622C84.0948 29.7759 82.5148 28.3137 79.9508 28.3137C77.4977 28.3137 75.8345 29.6686 75.8345 32.1097Z" fill="#040404"/>
<path d="M36.978 40H33.3375C33.0943 39.9958 32.8578 39.9218 32.658 39.7875H36.2985C36.4983 39.9218 36.7347 39.9958 36.978 40Z" fill="#858585"/>
<path d="M36.2985 39.7874H32.658L28.8293 37.3101H32.4697L36.2985 39.7874Z" fill="#808080"/>
<path d="M32.4697 37.3101H28.8292C28.274 37.1364 27.9126 37.0658 27.6108 37.0658H31.2513C31.5531 37.0658 31.9145 37.1364 32.4697 37.3101Z" fill="#858585"/>
<path d="M29.3001 1.78297C29.3795 1.73144 29.4587 1.6796 29.5394 1.63013C29.5871 1.60089 29.636 1.57352 29.6841 1.54501C29.7573 1.50165 29.8302 1.45772 29.9044 1.41605C29.9571 1.38644 30.011 1.35874 30.0642 1.32998C30.1355 1.29147 30.2064 1.25231 30.2786 1.21536C30.3124 1.19806 30.3468 1.18191 30.3807 1.16496C30.4668 1.12199 30.5532 1.07955 30.6404 1.03881C30.6854 1.01778 30.731 0.997733 30.7763 0.977303C30.8539 0.942332 30.9317 0.907877 31.0101 0.87468C31.0589 0.854049 31.1079 0.833993 31.157 0.814049C31.2338 0.782805 31.3111 0.752419 31.3887 0.722891C31.4383 0.704034 31.4879 0.685281 31.5377 0.66713C31.618 0.637898 31.6988 0.609989 31.7798 0.582604C31.827 0.566664 31.8739 0.550314 31.9213 0.535003C32.0143 0.504955 32.108 0.476751 32.2019 0.449137C32.2376 0.438652 32.2729 0.4273 32.3087 0.417174C32.4386 0.380411 32.5692 0.345955 32.7006 0.313806C32.727 0.307363 32.7538 0.301973 32.7803 0.295721C32.8879 0.270305 32.9959 0.245866 33.1045 0.223662C33.1307 0.21831 33.1571 0.213394 33.1833 0.208223C33.2937 0.186482 33.4046 0.166389 33.5159 0.147946C33.5368 0.144489 33.5577 0.140647 33.5786 0.137307C33.7039 0.117358 33.8297 0.0996575 33.9561 0.0842063C33.9852 0.0805958 34.0144 0.0773379 34.0436 0.073959C34.161 0.0603696 34.2787 0.0485559 34.3967 0.0385181C34.4104 0.0373812 34.424 0.0358707 34.4377 0.0347854C34.5659 0.0246023 34.6947 0.0172329 34.8237 0.0115403C34.8544 0.0101908 34.8851 0.00899151 34.9158 0.00794239C35.0466 0.00326557 35.1776 4.76837e-05 35.3091 4.76837e-05H31.6686C31.5371 4.76837e-05 31.4061 0.00326662 31.2753 0.00794239C31.2446 0.00904133 31.2139 0.0101845 31.1832 0.0115403C31.0542 0.0172392 30.9254 0.0245928 30.7972 0.0347854C30.7835 0.035877 30.7699 0.0373812 30.7562 0.0385181C30.6381 0.0483475 30.5205 0.0603685 30.4032 0.0739506C30.374 0.0773295 30.3448 0.0805937 30.3156 0.0842042C30.1893 0.0998532 30.0635 0.117554 29.9382 0.137305C29.9172 0.140645 29.8963 0.144487 29.8754 0.147944C29.7641 0.16633 29.6532 0.186422 29.5428 0.208221C29.5166 0.213392 29.4903 0.218302 29.4641 0.223659C29.4475 0.227052 29.4307 0.229962 29.4142 0.233431C29.3222 0.252667 29.231 0.274183 29.1398 0.295719C29.1133 0.301971 29.0865 0.307361 29.0601 0.313804C28.9287 0.345852 28.798 0.380308 28.6682 0.417172C28.6324 0.427298 28.5971 0.438646 28.5614 0.449135C28.4675 0.476749 28.3738 0.504953 28.2808 0.535001C28.2334 0.550318 28.1864 0.56667 28.1393 0.582615C28.0583 0.609998 27.9775 0.637894 27.8973 0.667113C27.8474 0.685283 27.7978 0.704036 27.7482 0.722912C27.6706 0.752434 27.5934 0.782806 27.5165 0.814028C27.4674 0.833996 27.4184 0.854054 27.3695 0.874716C27.2912 0.907886 27.2134 0.94231 27.1359 0.977254C27.0905 0.997704 27.045 1.01776 26.9999 1.03882C26.9126 1.07961 26.8261 1.1221 26.7399 1.16513C26.7061 1.18202 26.6718 1.19809 26.6382 1.21532C26.6319 1.21857 26.6254 1.22153 26.619 1.2248C26.5531 1.2587 26.4885 1.29497 26.4234 1.33017C26.3702 1.35886 26.3165 1.38651 26.2639 1.41606C26.1897 1.45772 26.1168 1.50166 26.0436 1.54502C25.9955 1.57352 25.9466 1.6009 25.8989 1.63013C25.8182 1.67961 25.739 1.73145 25.6596 1.78297C25.6207 1.80822 25.581 1.8323 25.5424 1.85803C25.425 1.93629 25.3092 2.01675 25.1948 2.09942H28.8353C28.9496 2.01671 29.0655 1.93625 29.1829 1.85803C29.2215 1.83229 29.2612 1.80822 29.3001 1.78297Z" fill="#8F8F8F"/>
<path d="M25.3385 38.1288H21.698C19.3628 38.1253 17.062 37.5839 14.9859 36.5493C12.9098 35.5147 11.1179 34.0167 9.75841 32.1792C8.4056 30.3715 7.49304 28.2909 7.08911 26.0933H10.7296C11.1335 28.2909 12.0461 30.3715 13.3989 32.1792C14.7584 34.0167 16.5502 35.5147 18.6264 36.5493C20.7025 37.5839 23.0033 38.1253 25.3385 38.1288Z" fill="#858585"/>
<path d="M10.7294 26.0933H7.08894C6.69087 25.9929 6.2823 25.9366 5.87109 25.9256H9.51158C9.92279 25.9366 10.3314 25.9929 10.7294 26.0933Z" fill="#858585"/>
<path d="M35.3091 4.673e-05C36.2073 0.000521687 37.1018 0.109684 37.972 0.324993C43.8525 1.77541 47.4314 7.66896 45.9656 13.4886C45.5788 15.0557 44.8342 16.519 43.7865 17.7711C42.7387 19.0231 41.4144 20.032 39.9108 20.7236C40.5905 24.3024 39.9039 27.9983 37.9787 31.1238C36.9926 32.7144 36.5847 32.3876 36.6039 34.3382L37.8112 38.8221C38.0028 39.5351 37.5527 40 36.978 40C36.7347 39.9958 36.4983 39.9218 36.2984 39.7875L32.4697 37.3101C31.9145 37.1364 31.5531 37.0658 31.2513 37.0658C30.6939 37.0658 30.3396 37.3067 29.3427 37.5839C28.0408 37.9457 26.6929 38.1291 25.3383 38.1288C23.0031 38.1253 20.7024 37.5839 18.6262 36.5493C16.5501 35.5147 14.7582 34.0168 13.3987 32.1792C12.0459 30.3715 11.1334 28.2909 10.7294 26.0933C10.3314 25.9929 9.92279 25.9367 9.51158 25.9256L4.80105 26.8408C4.71609 26.8576 4.62963 26.8663 4.54291 26.8666C3.69596 26.8666 3.35849 25.9697 3.90872 25.2464L6.72547 21.546C7.34397 19.9828 6.99259 19.9487 6.65558 18.3676C5.39656 12.438 7.86002 6.09067 13.3202 2.62331C15.6069 1.16465 18.2647 0.344059 21.0017 0.251638C23.7387 0.159216 26.4492 0.798545 28.8353 2.09942C30.7024 0.741368 32.9735 0.00485301 35.3091 4.673e-05Z" fill="#E8E8E8"/>
<path d="M13.8404 2.30829C13.9806 2.22679 14.1217 2.14767 14.2635 2.07091C14.2874 2.05807 14.3113 2.04574 14.3352 2.03303C14.4437 1.97524 14.5529 1.91974 14.6622 1.8648C14.7353 1.82813 14.8084 1.79204 14.8818 1.75653C14.9697 1.71412 15.0579 1.6727 15.1464 1.63229C15.2201 1.59847 15.2938 1.56484 15.3678 1.53228C15.457 1.49304 15.5466 1.45523 15.6363 1.41782C15.7101 1.38703 15.7839 1.35616 15.858 1.32661C15.949 1.2903 16.0405 1.25568 16.1319 1.22123C16.2054 1.19357 16.2787 1.16556 16.3524 1.1391C16.4457 1.10561 16.5394 1.07405 16.6331 1.04248C16.7056 1.01804 16.7779 0.99298 16.8506 0.969684C16.9473 0.938711 17.0444 0.909967 17.1414 0.881004C17.2116 0.860046 17.2817 0.838183 17.3521 0.818279C17.4544 0.789342 17.5572 0.762931 17.6598 0.736203C17.7254 0.719133 17.7909 0.700874 17.8566 0.684702C17.9736 0.655913 18.091 0.629977 18.2084 0.604041C18.26 0.592637 18.3114 0.579839 18.3631 0.568981C18.5186 0.536324 18.6744 0.506674 18.8304 0.478963C18.8744 0.471144 18.9186 0.464084 18.9626 0.456657C19.0803 0.436831 19.198 0.418384 19.3159 0.401314C19.3631 0.394505 19.4102 0.387559 19.4574 0.381192C19.6038 0.361436 19.7503 0.343403 19.8969 0.327929C19.9082 0.326734 19.9196 0.32516 19.9309 0.323984C20.0884 0.307723 20.2459 0.294604 20.4035 0.283247C20.4489 0.279977 20.4943 0.277401 20.5397 0.274536C20.6577 0.267089 20.7758 0.261007 20.8938 0.256289C20.9402 0.254445 20.9865 0.252389 21.0328 0.250963C21.1906 0.2461 21.3484 0.242858 21.5061 0.242858H17.8656C17.708 0.242852 17.5501 0.246097 17.3923 0.250963C17.346 0.252389 17.2997 0.254445 17.2533 0.256289C17.1353 0.260999 17.0172 0.267081 16.8992 0.274536C16.8538 0.277401 16.8084 0.279984 16.763 0.283247C16.6054 0.294606 16.4477 0.307726 16.2902 0.324C16.2793 0.325124 16.2684 0.326646 16.2575 0.327797C16.1105 0.3433 15.9636 0.361385 15.8169 0.381192C15.7698 0.387547 15.7227 0.394472 15.6756 0.401276C15.5575 0.418341 15.4395 0.436822 15.3216 0.456721C15.2778 0.46411 15.234 0.471132 15.1902 0.478906C15.0381 0.50591 14.8862 0.534538 14.7347 0.566244C14.7306 0.567099 14.7266 0.568152 14.7225 0.569006C14.6715 0.57971 14.6208 0.592334 14.5699 0.603571C14.4518 0.629655 14.3337 0.655772 14.2159 0.684741C14.1507 0.700783 14.0858 0.718915 14.0207 0.735843C13.9175 0.762685 13.8143 0.789234 13.7114 0.818318C13.6412 0.838183 13.5713 0.860008 13.5012 0.880914C13.4041 0.909896 13.307 0.938659 13.2102 0.969659C13.1374 0.992967 13.065 1.01805 12.9925 1.04251C12.8989 1.07408 12.8052 1.10561 12.7119 1.13909C12.6382 1.16556 12.5649 1.19357 12.4914 1.22123C12.4 1.25567 12.3085 1.29029 12.2175 1.3266C12.1434 1.35616 12.0696 1.38702 11.9958 1.41781C11.9061 1.45522 11.8166 1.49302 11.7274 1.53227C11.6533 1.56483 11.5796 1.59845 11.5059 1.63228C11.4175 1.67288 11.3293 1.71429 11.2413 1.75653C11.1679 1.79193 11.0947 1.82802 11.0218 1.8648C10.9776 1.88698 10.933 1.90764 10.889 1.93028C10.824 1.96373 10.7594 1.99857 10.6947 2.03303C10.6708 2.04574 10.6469 2.05806 10.6231 2.07091C10.4812 2.14747 10.3401 2.22659 10.1999 2.30828C10.1692 2.32609 10.1387 2.34422 10.1081 2.36227C9.96454 2.44698 9.82156 2.53336 9.67984 2.6233C4.21964 6.09065 1.75618 12.438 3.0152 18.3676C3.35221 19.9487 3.70359 19.9828 3.08509 21.546L0.268345 25.2464C-0.281894 25.9697 0.0555732 26.8666 0.902532 26.8666H4.54301C3.69606 26.8666 3.35859 25.9697 3.90883 25.2464L6.72557 21.546C7.34408 19.9828 6.9927 19.9487 6.65568 18.3676C5.39667 12.438 7.86013 6.09065 13.3203 2.6233C13.462 2.53336 13.605 2.44698 13.7486 2.36227C13.7792 2.34423 13.8097 2.3261 13.8404 2.30829Z" fill="#858585"/>
<path fill-rule="evenodd" clip-rule="evenodd" d="M34.285 7.10326C36.2418 10.0102 37.0928 13.4854 36.6922 16.9331C36.2915 20.3808 34.6642 23.5862 32.0891 25.9999C29.514 28.4135 26.1516 29.8851 22.5783 30.1622C19.005 30.4394 15.4433 29.5049 12.5039 27.5189C10.8948 26.4319 11.2635 26.041 9.21398 25.9424L4.43165 26.8849C3.38323 27.0913 2.9049 26.0984 3.51234 25.3061L6.34943 21.6056C6.96685 20.0465 6.60887 20.0159 6.25541 18.4454C5.48705 15.0295 5.98009 11.461 7.64879 8.36051C9.31749 5.26 12.0563 2.82363 15.3889 1.4751C18.7214 0.126572 22.437 -0.0488057 25.8893 0.979468C29.3417 2.00774 32.3125 4.17462 34.285 7.10326V7.10326Z" fill="#E42125"/>
<path fill-rule="evenodd" clip-rule="evenodd" d="M36.4332 0.325146C38.9604 0.935251 41.1896 2.3772 42.7387 4.40378C44.2878 6.43037 45.0602 8.91536 44.9236 11.4328C44.7869 13.9501 43.7497 16.3431 41.9897 18.2014C40.2297 20.0598 37.8567 21.2677 35.2773 21.6181C33.8655 21.81 33.8619 21.4253 32.7207 22.3542L30.6575 25.1454C30.2051 25.7572 29.4432 25.4579 29.3613 24.7453L28.9796 21.4177C28.5113 20.2927 28.3051 20.4476 27.3143 19.781C25.1594 18.331 23.5978 16.1959 22.901 13.747C22.2042 11.2981 22.4164 8.69029 23.5006 6.37709C24.5847 4.06389 26.4724 2.19164 28.8352 1.08594C31.198 -0.0197648 33.8865 -0.288967 36.4332 0.325146Z" fill="#2E90D1"/>
<path fill-rule="evenodd" clip-rule="evenodd" d="M14.6654 12.4667C17.4004 10.3196 20.822 9.16015 24.3435 9.18712C27.8651 9.2141 31.2672 10.4258 33.9668 12.6146C36.6664 14.8033 38.4951 17.8327 39.1397 21.1835C39.7842 24.5342 39.2043 27.9976 37.4994 30.9799C36.5661 32.6124 36.1339 32.3037 36.2437 34.2519L37.6832 38.6779C37.9986 39.6483 37.045 40.2017 36.1832 39.7085L32.1577 37.4033C30.5209 36.9786 30.5265 37.3201 28.977 37.8145C25.6069 38.8898 21.954 38.7879 18.6535 37.5264C15.353 36.2649 12.6137 33.9237 10.9121 30.9099C9.21054 27.8962 8.65424 24.4005 9.33997 21.0309C10.0257 17.6613 11.9101 14.6309 14.6654 12.4667Z" fill="#78258D"/>
<path d="M35.3393 18.1123L34.2517 18.7439H26.7471L28.161 18.1123H35.3393Z" fill="#808080"/>
<path d="M28.1899 18.2942L26.6176 19.0588C26.6006 19.0563 26.5832 19.0586 26.5674 19.0653L28.1396 18.3007C28.1554 18.294 28.1728 18.2918 28.1899 18.2942Z" fill="#858585"/>
<path d="M22.6477 27.2312L21.0754 27.9957C22.1616 27.09 23.1534 26.0834 24.0368 24.9905L25.6091 24.226C24.7257 25.3189 23.7338 26.3254 22.6477 27.2312Z" fill="#858585"/>
<path d="M31.5347 32.6969L29.9624 33.4615C29.7416 33.5779 29.4953 33.6416 29.244 33.6473C28.5804 33.6473 27.8932 33.1468 26.5433 32.1582C24.8941 30.9537 21.1579 28.1729 21.0754 27.9957L22.6477 27.2312C22.7302 27.4083 26.4664 30.1892 28.1156 31.3936C29.4655 32.3823 30.1527 32.8827 30.8162 32.8827C31.0676 32.8771 31.3139 32.8134 31.5347 32.6969Z" fill="#858585"/>
<path d="M25.6091 24.226C26.212 24.5586 31.7336 28.6364 33.4984 29.892C34.1692 30.3683 34.2089 30.6989 33.5461 31.2322C32.1764 32.3372 31.5093 32.8827 30.8162 32.8827C30.1527 32.8827 29.4655 32.3823 28.1156 31.3936C26.4664 30.1892 22.7302 27.4083 22.6477 27.2312C23.7339 26.3254 24.7257 25.3189 25.6091 24.226Z" fill="white"/>
<path d="M12.1448 28.2308L10.5725 28.9953C10.8231 28.8202 12.1741 27.8735 12.9608 27.411C16.2197 25.4981 19.1585 23.2624 21.094 20.0092C21.1853 19.8557 21.2746 19.6982 21.3638 19.5388C21.5571 19.1539 21.725 18.7575 21.8666 18.3521C22.2394 17.3493 22.5258 16.3185 22.7228 15.27L24.2455 14.1121C24.2081 14.4132 24.2972 14.0762 24.028 15.6911C23.9409 16.2136 23.6318 17.0916 23.4388 17.5875C23.2679 18.0461 23.1058 19.0848 22.7228 19.5858C20.416 22.6036 17.792 24.7335 14.533 26.6465C13.7463 27.109 12.3953 28.0556 12.1448 28.2308Z" fill="#858585"/>
<path d="M14.389 31.801L12.8168 32.5656L10.5591 29.0683L12.1314 28.3038L14.389 31.801Z" fill="#808080"/>
<path d="M35.1219 14.1123L35.3394 18.1123H28.1611C28.1141 18.1079 27.7416 19.1778 27.4662 19.8922C26.8484 21.4903 26.3002 22.2953 25.2641 23.6375C23.7715 25.5682 21.8789 27.2509 19.6754 28.7387C18.4503 29.5673 15.7322 31.0689 14.7504 31.6022C14.5257 31.7282 14.3959 31.7974 14.3891 31.801L12.1315 28.3038C12.1235 28.2923 12.1204 28.2783 12.1229 28.2647C12.1254 28.2511 12.1333 28.239 12.1449 28.231C12.3954 28.0558 13.7464 27.1092 14.5331 26.6467C17.7921 24.7337 20.7309 22.498 22.6663 19.2448C22.7576 19.0913 22.8441 18.9323 22.9361 18.7744C23.2959 18.1579 23.6472 16.8771 23.8439 15.9302C24.1771 14.3266 24.2082 14.4134 24.2456 14.1123C24.2499 14.0853 35.1219 14.1123 35.1219 14.1123Z" fill="white"/>
<path d="M12.1315 28.3038L10.5592 29.0683C10.5512 29.0569 10.5482 29.0429 10.5507 29.0293C10.5532 29.0157 10.561 29.0036 10.5726 28.9955L12.1449 28.2309C12.1333 28.239 12.1254 28.2511 12.1229 28.2647C12.1204 28.2783 12.1235 28.2923 12.1315 28.3038Z" fill="#858585"/>
<path d="M32.1389 6.75303L30.5666 7.51755H29.3374L30.9097 6.75303H32.1389Z" fill="#808080"/>
<path d="M28.7487 11.6762L27.1765 12.4407C26.5656 12.7355 25.8919 12.8875 25.2093 12.8845C25.1991 12.8845 25.1886 12.8845 25.1784 12.8844C22.7094 12.8687 20.8074 11.0167 20.7996 8.62159C20.7988 7.83942 21.023 7.07249 21.4471 6.40666C21.8712 5.74083 22.4784 5.2024 23.2008 4.85163L24.773 4.08708C24.0507 4.43784 23.4435 4.97628 23.0194 5.6421C22.5953 6.30793 22.3711 7.07486 22.3718 7.85703C22.3797 10.2522 24.2817 12.1041 26.7507 12.1198C26.7609 12.1199 26.7714 12.1199 26.7816 12.1199C27.4641 12.1229 28.1379 11.9709 28.7487 11.6762Z" fill="#858585"/>
<path d="M32.1076 3.64738L32.1388 6.75297H30.9095C31.0188 7.12304 31.0763 7.50563 31.0804 7.8905C31.1064 10.2678 29.2196 12.1199 26.7816 12.1199C26.7714 12.1199 26.7609 12.1199 26.7507 12.1198C24.2817 12.1041 22.3797 10.2522 22.3718 7.85703C22.3701 6.75278 22.8174 5.69222 23.617 4.90453C24.4167 4.11683 25.5044 3.66525 26.6452 3.64738C26.7764 3.64738 26.9078 3.65131 27.037 3.66114L32.1076 3.64738Z" fill="white"/>
<path d="M50.7028 13.5796V20.9559H55.1763V23.2009H47.4443V13.5796H50.7028Z" fill="#040404"/>
<path d="M59.2218 18.3502H56.4604C56.4604 17.5841 56.7733 17.0006 57.3992 16.5996C58.0251 16.1988 59.0284 15.9984 60.4092 15.9984C60.8965 15.9935 61.3835 16.0247 61.8659 16.0919C62.216 16.1365 62.5564 16.2358 62.8738 16.3858C63.1053 16.4986 63.3192 16.6425 63.509 16.8134C63.679 16.9803 63.8005 17.1878 63.861 17.4148C63.929 17.6376 63.9775 17.8656 64.0059 18.0963C64.0318 18.3628 64.0433 18.6305 64.0405 18.8981V22.172C64.0331 22.3478 64.0541 22.5236 64.1027 22.6932C64.1733 22.8443 64.2856 22.9737 64.4271 23.0673V23.2009H61.4585L61.3205 22.4526C60.6209 23.0852 59.7142 23.4015 58.6005 23.4013C57.8639 23.4013 57.2495 23.221 56.7572 22.8602C56.2647 22.4994 56.0184 21.976 56.0185 21.29C56.0003 20.8487 56.1339 20.414 56.3983 20.054C56.6364 19.7394 56.9691 19.5037 57.3509 19.3791C57.7571 19.2484 58.1724 19.1457 58.5936 19.0718C59.0044 18.9961 59.4193 18.9426 59.8362 18.9115C60.1639 18.897 60.4863 18.8268 60.7889 18.7043C61.042 18.5931 61.1686 18.4394 61.1686 18.2433C61.1686 17.8603 60.8557 17.6688 60.2297 17.6687C59.613 17.6687 59.277 17.8959 59.2218 18.3502ZM61.1686 20.1008C60.8675 20.225 60.5524 20.3147 60.2297 20.3679C59.9053 20.4189 59.5909 20.5181 59.2977 20.662C59.1954 20.7199 59.1121 20.8045 59.0571 20.9061C59.0022 21.0078 58.978 21.1223 58.9871 21.2366C58.9862 21.3227 59.0087 21.4075 59.0523 21.4825C59.0959 21.5576 59.1591 21.6202 59.2356 21.6642C59.4353 21.7798 59.6659 21.8356 59.8984 21.8245C60.3768 21.8245 60.7082 21.682 60.8925 21.3969C61.0765 21.1119 61.1686 20.6798 61.1686 20.1007V20.1008Z" fill="#040404"/>
<path d="M68.1825 16.1988V17.2945C68.8453 16.4305 69.6598 15.9985 70.6263 15.9984C72.4949 15.9984 73.4293 17.0006 73.4293 19.005V23.2009H70.5573V19.4994C70.5573 18.6265 70.2214 18.1899 69.5494 18.1898C69.1259 18.1898 68.8337 18.3101 68.6727 18.5507C68.5115 18.7912 68.431 19.152 68.431 19.633V23.2009H65.5591V16.1988H68.1825Z" fill="#040404"/>
<path d="M75.0448 23.5617H77.9302C77.9855 23.8824 78.2525 24.0428 78.7312 24.0427C79.1453 24.0427 79.4421 23.9403 79.6215 23.7354C79.8013 23.5304 79.891 23.1786 79.8907 22.6798V22.1052C79.3662 22.6129 78.6759 22.8668 77.8197 22.8668C76.8534 22.8668 76.0871 22.5484 75.5209 21.9114C74.9549 21.2746 74.6718 20.4884 74.6717 19.5529C74.6691 19.117 74.7295 18.683 74.8513 18.2633C74.9689 17.8621 75.1506 17.481 75.3899 17.1341C75.6428 16.7753 75.9909 16.4891 76.3976 16.3057C76.8683 16.0928 77.3834 15.9876 77.9028 15.9984C78.3319 15.9975 78.7544 16.1009 79.1316 16.2989C79.5151 16.4969 79.8459 16.7782 80.0979 17.1209V16.1988H82.6248V21.8379C82.6248 22.2477 82.6132 22.5863 82.5902 22.8535C82.5621 23.1489 82.509 23.4417 82.4315 23.7288C82.3655 24.0111 82.2358 24.2757 82.0517 24.5038C81.8599 24.7227 81.6367 24.9139 81.389 25.0717C81.0676 25.2686 80.7083 25.4004 80.3328 25.4593C79.8314 25.5451 79.3229 25.5854 78.8139 25.5796C77.6264 25.5796 76.7197 25.3858 76.0938 24.9982C75.4679 24.6107 75.1182 24.1319 75.0448 23.5617ZM78.6759 17.9894C77.921 17.9894 77.5436 18.5195 77.5437 19.5796C77.5319 19.9241 77.6334 20.2633 77.8336 20.5484C77.9282 20.6775 78.0551 20.7814 78.2023 20.8503C78.3496 20.9193 78.5125 20.951 78.6759 20.9426C79.09 20.9426 79.3961 20.8045 79.5941 20.5283C79.8006 20.2233 79.9042 19.8638 79.8907 19.4994C79.9062 19.1188 79.8054 18.7424 79.6009 18.417C79.4076 18.132 79.0993 17.9895 78.6759 17.9894Z" fill="#040404"/>
<path d="M84.1431 16.1988H87.0151V19.9805C87.0151 20.4437 87.0979 20.7711 87.2636 20.9627C87.4292 21.1543 87.6916 21.2501 88.0506 21.25C88.4461 21.25 88.7269 21.1119 88.8929 20.8357C89.0585 20.5597 89.1413 20.1365 89.1412 19.5662V16.1988H92.0132V23.2009H89.3484V22.1719C88.9985 22.6442 88.6303 22.9672 88.2439 23.1408C87.8573 23.3144 87.3557 23.4013 86.7389 23.4013C85.9287 23.4013 85.2936 23.1564 84.8334 22.6664C84.373 22.1765 84.1428 21.4416 84.1431 20.4616V16.1988Z" fill="#040404"/>
<path d="M96.3899 18.3502H93.6285C93.6285 17.5841 93.9415 17.0006 94.5674 16.5996C95.1933 16.1988 96.1966 15.9984 97.5774 15.9984C98.0647 15.9935 98.5517 16.0247 99.0341 16.0919C99.3842 16.1365 99.7246 16.2358 100.042 16.3858C100.274 16.4985 100.487 16.6425 100.677 16.8134C100.847 16.9803 100.969 17.1878 101.029 17.4148C101.097 17.6376 101.146 17.8656 101.174 18.0963C101.2 18.3628 101.212 18.6305 101.209 18.8981V22.172C101.201 22.3478 101.222 22.5236 101.271 22.6932C101.342 22.8442 101.454 22.9736 101.595 23.0673V23.2009H98.6269L98.4887 22.4526C97.7891 23.0852 96.8824 23.4015 95.7686 23.4013C95.0321 23.4013 94.4177 23.221 93.9254 22.8602C93.433 22.4994 93.1868 21.976 93.1867 21.29C93.1685 20.8487 93.3021 20.414 93.5665 20.054C93.8046 19.7394 94.1373 19.5037 94.5191 19.3791C94.9253 19.2484 95.3406 19.1457 95.7618 19.0718C96.1726 18.9961 96.5874 18.9426 97.0043 18.9115C97.332 18.897 97.6546 18.8269 97.9572 18.7043C98.2102 18.5931 98.3367 18.4394 98.3367 18.2433C98.3367 17.8603 98.0238 17.6688 97.3978 17.6687C96.7812 17.6687 96.4452 17.8959 96.3899 18.3502ZM98.3367 20.1008C98.0356 20.2251 97.7205 20.3147 97.3978 20.3679C97.0734 20.4189 96.759 20.5181 96.4659 20.662C96.3636 20.7199 96.2803 20.8045 96.2254 20.9062C96.1705 21.0078 96.1462 21.1223 96.1553 21.2366C96.1544 21.3227 96.1769 21.4075 96.2205 21.4826C96.2641 21.5576 96.3274 21.6203 96.4039 21.6642C96.6036 21.7798 96.8342 21.8356 97.0666 21.8245C97.545 21.8245 97.8764 21.682 98.0608 21.3969C98.2446 21.1119 98.3366 20.6798 98.3367 20.1007V20.1008Z" fill="#040404"/>
<path d="M102.824 23.5617H105.71C105.765 23.8824 106.032 24.0428 106.511 24.0427C106.925 24.0427 107.222 23.9403 107.401 23.7354C107.581 23.5304 107.67 23.1786 107.671 22.6798V22.1052C107.146 22.6129 106.455 22.8668 105.599 22.8668C104.633 22.8668 103.867 22.5484 103.3 21.9114C102.734 21.2746 102.451 20.4884 102.451 19.5529C102.449 19.117 102.509 18.683 102.631 18.2633C102.748 17.8621 102.93 17.4811 103.169 17.1341C103.422 16.7754 103.77 16.4892 104.177 16.3057C104.648 16.0928 105.163 15.9876 105.682 15.9984C106.111 15.9975 106.534 16.1009 106.911 16.2989C107.295 16.4969 107.625 16.7782 107.877 17.1208V16.1988H110.404V21.8379C110.404 22.2477 110.393 22.5863 110.37 22.8535C110.342 23.1489 110.289 23.4417 110.211 23.7288C110.145 24.0111 110.015 24.2757 109.831 24.5038C109.639 24.7227 109.416 24.914 109.169 25.0717C108.847 25.2686 108.488 25.4004 108.112 25.4593C107.611 25.5451 107.102 25.5854 106.593 25.5796C105.406 25.5796 104.5 25.3858 103.874 24.9982C103.247 24.6107 102.898 24.1319 102.824 23.5617ZM106.455 17.9894C105.701 17.9894 105.323 18.5195 105.323 19.5796C105.311 19.9241 105.413 20.2633 105.613 20.5484C105.708 20.6775 105.835 20.7814 105.982 20.8504C106.129 20.9193 106.292 20.951 106.455 20.9426C106.87 20.9426 107.176 20.8045 107.374 20.5283C107.58 20.2233 107.684 19.8638 107.671 19.4994C107.686 19.1188 107.585 18.7423 107.38 18.417C107.187 18.132 106.879 17.9895 106.455 17.9894Z" fill="#040404"/>
<path d="M120 20.3279H114.518C114.512 20.5116 114.546 20.6945 114.617 20.8648C114.689 21.0351 114.796 21.1891 114.933 21.3168C115.065 21.4432 115.223 21.5426 115.396 21.6091C115.569 21.6757 115.754 21.708 115.941 21.7042C116.456 21.7042 116.815 21.4993 117.018 21.0896H119.765C119.667 21.4674 119.485 21.8201 119.232 22.1235C118.98 22.4268 118.662 22.6736 118.302 22.8468C117.513 23.226 116.642 23.4162 115.761 23.4013C114.555 23.4013 113.568 23.0806 112.8 22.4392C112.031 21.7979 111.646 20.907 111.646 19.7667C111.646 18.6354 112.035 17.7245 112.813 17.034C113.591 16.3436 114.569 15.9984 115.747 15.9984C117.073 15.9984 118.113 16.3881 118.868 17.1676C119.622 17.9472 120 19.0007 120 20.3279ZM114.518 18.9115H117.128C117.128 18.7524 117.094 18.5951 117.029 18.4492C116.964 18.3032 116.868 18.1718 116.748 18.0629C116.634 17.9461 116.495 17.8532 116.342 17.79C116.189 17.7268 116.024 17.6946 115.858 17.6954C115.434 17.6954 115.105 17.8045 114.871 18.0228C114.751 18.1389 114.658 18.278 114.597 18.4311C114.537 18.5841 114.51 18.7478 114.518 18.9115V18.9115Z" fill="#040404"/>
</symbol><symbol viewBox="0 0 180 62" fill="none" id="logo-white" xmlns="http://www.w3.org/2000/svg">
<path fill-rule="evenodd" clip-rule="evenodd" d="M71.2787 40.7461V44.13H69.7402V46.6212H71.2787V51.1674C71.2787 54.9248 71.9235 55.0078 77.6403 55.0078V51.9145H76.9543C75.7486 51.9145 75.603 51.5618 75.603 50.5653V46.6212H77.682V44.13H75.603V40.7461H71.2787ZM85.3743 46.7249C86.4761 46.7249 87.2038 47.8667 87.2038 49.465C87.2038 51.5201 86.497 52.413 85.3326 52.413C84.2308 52.413 83.4617 51.5201 83.4617 49.465C83.4617 48.2403 83.898 46.7249 85.3743 46.7249ZM79.1374 49.6933C79.1374 53.4094 81.8399 55.3192 85.3326 55.3192C88.8253 55.3192 91.5278 53.4507 91.5278 49.465C91.5278 46.0814 89.1578 43.8185 85.3118 43.8185C81.6321 43.8185 79.1374 45.9153 79.1374 49.6933ZM105.935 46.9118C107.307 46.9118 107.765 48.0533 107.765 49.2576C107.765 50.4199 107.266 51.4993 105.935 51.4993C104.75 51.4993 104.23 50.4615 104.23 49.3821C104.23 47.9704 104.625 46.9118 105.935 46.9118ZM100.468 55.5683C100.675 57.1666 102.297 58.7028 106.143 58.7028C111.507 58.7028 111.881 56.1496 111.881 52.8903V44.13H108.076V45.5622C107.701 45.033 107.206 44.5994 106.632 44.2964C106.058 43.9935 105.42 43.8298 104.771 43.8185C101.195 43.8185 99.9061 46.6625 99.9061 49.3405C99.9061 52.1223 101.632 54.4888 104.646 54.4888C106.205 54.4888 107.141 53.9284 107.765 53.3055V54.1982C107.765 55.7552 107.266 56.3158 106.018 56.3158C105.187 56.3158 104.875 55.9419 104.812 55.5683H100.468ZM119.989 46.7249C121.091 46.7249 121.818 47.8667 121.818 49.465C121.818 51.5201 121.111 52.413 119.947 52.413C118.845 52.413 118.076 51.5201 118.076 49.465C118.076 48.2403 118.513 46.7249 119.989 46.7249ZM113.752 49.6933C113.752 53.4094 116.454 55.3192 119.947 55.3192C123.44 55.3192 126.142 53.4507 126.142 49.465C126.142 46.0814 123.772 43.8185 119.926 43.8185C116.247 43.8185 113.752 45.9153 113.752 49.6933Z" fill="white"/>
<path d="M55.4671 61.9051H50.0064C49.6415 61.8985 49.2868 61.7841 48.9871 61.5762H54.4478C54.7475 61.7841 55.1022 61.8985 55.4671 61.9051Z" fill="#858585"/>
<path d="M54.4479 61.5762H48.9871L43.2441 57.7422H48.7047L54.4479 61.5762Z" fill="#808080"/>
<path d="M48.7048 57.7414H43.2441C42.4112 57.4725 41.8692 57.3633 41.4165 57.3633H46.8772C47.3299 57.3633 47.872 57.4725 48.7048 57.7414Z" fill="#858585"/>
<path d="M43.9504 2.75928C44.0695 2.67954 44.1883 2.59931 44.3094 2.52274C44.381 2.4775 44.4542 2.43513 44.5264 2.39101C44.6362 2.32391 44.7455 2.25593 44.8568 2.19144C44.936 2.1456 45.0167 2.10274 45.0965 2.05823C45.2035 1.99863 45.3099 1.93803 45.4182 1.88084C45.4688 1.85407 45.5204 1.82907 45.5713 1.80284C45.7005 1.73635 45.83 1.67065 45.9608 1.6076C46.0284 1.57506 46.0967 1.54404 46.1647 1.51242C46.281 1.4583 46.3978 1.40497 46.5154 1.3536C46.5886 1.32167 46.6621 1.29063 46.7357 1.25976C46.851 1.21141 46.9669 1.16438 47.0833 1.11869C47.1576 1.0895 47.232 1.06048 47.3068 1.03239C47.4272 0.987149 47.5484 0.943958 47.67 0.901576C47.7407 0.876907 47.8112 0.851602 47.8822 0.827908C48.0217 0.781404 48.1623 0.737755 48.3031 0.69502C48.3566 0.678793 48.4096 0.661223 48.4633 0.645553C48.6581 0.588658 48.854 0.535333 49.0511 0.485579C49.0908 0.475608 49.1309 0.467265 49.1706 0.45759C49.3321 0.418255 49.4941 0.380433 49.657 0.346069C49.6963 0.337787 49.7358 0.330179 49.7752 0.322176C49.9408 0.288529 50.1071 0.257434 50.2741 0.22889C50.3055 0.22354 50.3368 0.217594 50.3682 0.212425C50.5561 0.181551 50.7449 0.154158 50.9344 0.130245C50.9781 0.124658 51.0219 0.119616 51.0657 0.114387C51.2417 0.0933553 51.4182 0.0750723 51.5953 0.0595375C51.6158 0.0577781 51.6362 0.0554404 51.6568 0.0537608C51.8491 0.0380012 52.0423 0.0265961 52.2358 0.0177861C52.2818 0.0156977 52.3279 0.0138416 52.374 0.012218C52.5702 0.00498005 52.7667 0 52.9639 0H47.5032C47.306 0 47.1094 0.00498168 46.9132 0.012218C46.8671 0.0139187 46.8211 0.0156879 46.7751 0.0177861C46.5815 0.0266059 46.3884 0.0379866 46.196 0.0537608C46.1755 0.0554502 46.1551 0.0577781 46.1346 0.0595375C45.9574 0.0747497 45.781 0.0933536 45.605 0.114373C45.5612 0.119603 45.5174 0.124655 45.4737 0.130242C45.2842 0.154461 45.0955 0.181854 44.9075 0.212422C44.876 0.217591 44.8448 0.223537 44.8133 0.228887C44.6464 0.257341 44.4801 0.288437 44.3145 0.322172C44.2751 0.330176 44.2356 0.337774 44.1963 0.346066C44.1714 0.351316 44.1464 0.355819 44.1215 0.361188C43.9836 0.390958 43.8468 0.424258 43.7099 0.457587C43.6702 0.467262 43.63 0.475604 43.5904 0.485576C43.3933 0.535173 43.1973 0.588498 43.0026 0.64555C42.9489 0.66122 42.8959 0.678783 42.8424 0.695017C42.7015 0.737752 42.561 0.781401 42.4215 0.827904C42.3504 0.851609 42.2799 0.876915 42.2092 0.901592C42.0877 0.943971 41.9665 0.987142 41.8462 1.03236C41.7713 1.06048 41.6969 1.08951 41.6225 1.11872C41.5061 1.16441 41.3903 1.21141 41.275 1.25973C41.2013 1.29063 41.1278 1.32168 41.0546 1.35365C40.937 1.40499 40.8204 1.45826 40.7041 1.51234C40.636 1.54399 40.5677 1.57503 40.5001 1.60762C40.3691 1.67075 40.2394 1.73651 40.1101 1.80311C40.0594 1.82924 40.008 1.85411 39.9576 1.88078C39.948 1.88581 39.9383 1.89039 39.9288 1.89544C39.8299 1.94791 39.733 2.00405 39.6353 2.05853C39.5556 2.10292 39.4751 2.14572 39.3961 2.19145C39.2848 2.25593 39.1755 2.32393 39.0656 2.39102C38.9934 2.43514 38.9202 2.47751 38.8487 2.52275C38.7276 2.59932 38.6087 2.67955 38.4896 2.75929C38.4312 2.79836 38.3717 2.83562 38.3138 2.87545C38.1378 2.99656 37.964 3.12108 37.7925 3.24902H43.2532C43.4247 3.12103 43.5984 2.9965 43.7746 2.87545C43.8325 2.83561 43.892 2.79835 43.9504 2.75928Z" fill="#8F8F8F"/>
<path d="M38.0076 59.0092H32.5468C29.0441 59.0037 25.5929 58.1658 22.4787 56.5647C19.3645 54.9636 16.6767 52.6453 14.6375 49.8014C12.6083 47.0038 11.2394 43.7838 10.6335 40.3828H16.0943C16.7002 43.7838 18.069 47.0038 20.0982 49.8014C22.1374 52.6453 24.8252 54.9636 27.9395 56.5647C31.0537 58.1658 34.5048 59.0037 38.0076 59.0092Z" fill="#858585"/>
<path d="M16.0944 40.3826H10.6337C10.0366 40.2272 9.42369 40.1401 8.80688 40.123H14.2676C14.8844 40.1401 15.4973 40.2272 16.0944 40.3826Z" fill="#858585"/>
<path d="M52.9638 0C54.311 0.000735053 55.6529 0.169676 56.9582 0.502893C65.7789 2.74759 71.1472 11.8686 68.9485 20.8752C68.3684 23.3005 67.2515 25.5651 65.6798 27.5028C64.1081 29.4404 62.1217 31.0018 59.8663 32.0722C60.8858 37.6108 59.8559 43.3306 56.9682 48.1677C55.489 50.6294 54.8772 50.1236 54.9059 53.1424L56.7169 60.0818C57.0043 61.1852 56.3292 61.9047 55.4671 61.9047C55.1022 61.8981 54.7475 61.7837 54.4478 61.5758L48.7047 57.7418C47.8718 57.4729 47.3298 57.3637 46.8771 57.3637C46.041 57.3637 45.5096 57.7365 44.0142 58.1655C42.0613 58.7254 40.0394 59.0093 38.0075 59.0088C34.5048 59.0034 31.0536 58.1654 27.9394 56.5643C24.8252 54.9632 22.1374 52.6449 20.0982 49.8011C18.069 47.0034 16.7002 43.7834 16.0943 40.3825C15.4972 40.227 14.8843 40.14 14.2675 40.1229L7.20169 41.5392C7.07426 41.5653 6.94456 41.5787 6.81449 41.5792C5.54406 41.5792 5.03785 40.1912 5.86321 39.0717L10.0883 33.3449C11.0161 30.9257 10.489 30.8729 9.98349 28.4259C8.09497 19.2492 11.7902 9.42596 19.9805 4.05982C23.4105 1.80237 27.3971 0.5324 31.5027 0.389367C35.6082 0.246334 39.6738 1.23577 43.2531 3.24902C46.0537 1.14728 49.4604 0.0074383 52.9638 0Z" fill="#E8E8E8"/>
<path d="M20.7605 3.57248C20.971 3.44635 21.1826 3.3239 21.3953 3.20511C21.431 3.18524 21.467 3.16615 21.5028 3.14649C21.6655 3.05704 21.8293 2.97115 21.9934 2.88613C22.1029 2.82938 22.2127 2.77352 22.3227 2.71857C22.4546 2.65293 22.5869 2.58883 22.7196 2.52628C22.8301 2.47394 22.9407 2.4219 23.0518 2.37151C23.1856 2.31078 23.3199 2.25226 23.4544 2.19436C23.5651 2.14672 23.6758 2.09895 23.787 2.05321C23.9235 1.99702 24.0607 1.94344 24.1979 1.89013C24.3081 1.84732 24.4181 1.80397 24.5286 1.76302C24.6686 1.71118 24.8091 1.66235 24.9496 1.61348C25.0584 1.57566 25.1669 1.53688 25.2759 1.50083C25.421 1.45289 25.5666 1.40841 25.7121 1.36358C25.8175 1.33115 25.9225 1.29731 26.0281 1.26651C26.1816 1.22173 26.3357 1.18085 26.4898 1.13949C26.5882 1.11307 26.6863 1.08481 26.7849 1.05978C26.9604 1.01523 27.1365 0.97509 27.3126 0.93495C27.39 0.917301 27.4672 0.897494 27.5447 0.880691C27.7779 0.83015 28.0116 0.784263 28.2456 0.741378C28.3117 0.729277 28.3778 0.718351 28.4439 0.706856C28.6204 0.676173 28.797 0.647623 28.9738 0.621206C29.0446 0.610668 29.1153 0.599919 29.1861 0.590065C29.4057 0.559491 29.6254 0.531582 29.8453 0.507634C29.8623 0.505785 29.8793 0.503348 29.8964 0.501529C30.1325 0.476363 30.3689 0.45606 30.6053 0.438484C30.6733 0.433422 30.7414 0.429436 30.8095 0.425002C30.9866 0.413478 31.1637 0.404065 31.3408 0.396763C31.4103 0.393909 31.4797 0.390728 31.5492 0.38852C31.786 0.380994 32.0227 0.375977 32.2592 0.375977H26.7985C26.5619 0.375967 26.3252 0.380989 26.0885 0.38852C26.019 0.390728 25.9495 0.393909 25.88 0.396763C25.7029 0.404052 25.5258 0.413465 25.3488 0.425002C25.2807 0.429436 25.2126 0.433434 25.1445 0.438484C24.908 0.456063 24.6716 0.476368 24.4353 0.501553C24.4189 0.503293 24.4026 0.505649 24.3862 0.507429C24.1657 0.531422 23.9454 0.559411 23.7253 0.590065C23.6546 0.5999 23.5841 0.610618 23.5135 0.621148C23.3363 0.647557 23.1593 0.67616 22.9825 0.706956C22.9167 0.71839 22.851 0.729258 22.7853 0.74129C22.5572 0.78308 22.3294 0.827386 22.102 0.876455C22.0959 0.877778 22.0898 0.879409 22.0837 0.88073C22.0073 0.897296 21.9312 0.916833 21.8549 0.934223C21.6777 0.974592 21.5005 1.01501 21.3238 1.05984C21.226 1.08467 21.1286 1.11273 21.031 1.13893C20.8762 1.18047 20.7214 1.22156 20.5671 1.26657C20.4618 1.29731 20.3569 1.33109 20.2518 1.36344C20.1062 1.4083 19.9604 1.45281 19.8153 1.50079C19.7062 1.53686 19.5976 1.57568 19.4888 1.61353C19.3483 1.66239 19.2078 1.71118 19.0679 1.76301C18.9574 1.80396 18.8473 1.84731 18.7372 1.89012C18.5999 1.94343 18.4628 1.997 18.3262 2.0532C18.2151 2.09894 18.1044 2.1467 17.9937 2.19435C17.8592 2.25225 17.7249 2.31076 17.591 2.3715C17.48 2.42189 17.3694 2.47391 17.2589 2.52627C17.1262 2.5891 16.9939 2.6532 16.862 2.71856C16.7519 2.77335 16.6421 2.8292 16.5326 2.88612C16.4664 2.92045 16.3995 2.95242 16.3335 2.98747C16.2359 3.03923 16.1391 3.09314 16.042 3.14648C16.0062 3.16615 15.9703 3.18522 15.9346 3.2051C15.7218 3.32358 15.5102 3.44604 15.2998 3.57247C15.2538 3.60003 15.208 3.62809 15.1621 3.65602C14.9468 3.78712 14.7323 3.9208 14.5198 4.05999C6.32946 9.42614 2.63428 19.2494 4.5228 28.4261C5.02832 30.8731 5.55538 30.9259 4.62764 33.3451L0.402518 39.0719C-0.422841 40.1913 0.0833598 41.5794 1.3538 41.5794H6.81452C5.54409 41.5794 5.03789 40.1913 5.86324 39.0719L10.0884 33.3451C11.0161 30.9259 10.489 30.8731 9.98352 28.4261C8.09501 19.2494 11.7902 9.42614 19.9805 4.05999C20.1931 3.9208 20.4075 3.78712 20.6228 3.65602C20.6687 3.6281 20.7145 3.60004 20.7605 3.57248Z" fill="#858585"/>
<path fill-rule="evenodd" clip-rule="evenodd" d="M51.4276 10.9928C54.3628 15.4917 55.6393 20.8699 55.0384 26.2057C54.4374 31.5414 51.9964 36.5022 48.1338 40.2376C44.2711 43.973 39.2275 46.2504 33.8675 46.6793C28.5076 47.1083 23.1651 45.662 18.756 42.5885C16.3423 40.9062 16.8953 40.3013 13.8211 40.1486L6.6476 41.6072C5.07496 41.9267 4.35747 40.39 5.26863 39.1639L9.52427 33.4369C10.4504 31.0241 9.91343 30.9767 9.38323 28.5462C8.2307 23.2596 8.97026 17.737 11.4733 12.9386C13.9764 8.14016 18.0845 4.36959 23.0834 2.28258C28.0823 0.195567 33.6556 -0.0758509 38.8341 1.51553C44.0127 3.1069 48.4688 6.4604 51.4276 10.9928V10.9928Z" fill="#E42125"/>
<path fill-rule="evenodd" clip-rule="evenodd" d="M54.6499 0.502564C58.4407 1.44677 61.7846 3.67836 64.1082 6.81474C66.4318 9.95112 67.5904 13.7969 67.3855 17.6929C67.1805 21.5889 65.6246 25.2923 62.9847 28.1683C60.3447 31.0443 56.7851 32.9137 52.916 33.456C50.7983 33.7529 50.7929 33.1576 49.0812 34.5951L45.9863 38.9149C45.3078 39.8617 44.1649 39.3985 44.042 38.2957L43.4695 33.1458C42.767 31.4047 42.4578 31.6444 40.9716 30.6128C37.7393 28.3688 35.3968 25.0645 34.3516 21.2745C33.3065 17.4845 33.6247 13.4486 35.251 9.86867C36.8772 6.28871 39.7087 3.39118 43.2529 1.67998C46.7971 -0.0312265 50.8299 -0.447849 54.6499 0.502564Z" fill="#2E90D1"/>
<path fill-rule="evenodd" clip-rule="evenodd" d="M21.9983 19.294C26.1008 15.9711 31.2331 14.1767 36.5154 14.2185C41.7977 14.2602 46.901 16.1355 50.9503 19.5228C54.9997 22.9102 57.7428 27.5986 58.7096 32.7843C59.6764 37.97 58.8066 43.33 56.2492 47.9454C54.8493 50.4719 54.201 49.9941 54.3657 53.0092L56.5249 59.859C56.998 61.3608 55.5676 62.2172 54.2749 61.4539L48.2367 57.8864C45.7814 57.229 45.7898 57.7577 43.4657 58.5228C38.4105 60.1869 32.9311 60.0291 27.9803 58.0769C23.0296 56.1246 18.9207 52.5013 16.3683 47.8371C13.8159 43.173 12.9815 37.7631 14.0101 32.5482C15.0387 27.3333 17.8653 22.6433 21.9983 19.294Z" fill="#78258D"/>
<path d="M53.0092 28.0312L51.3778 29.0087H40.1208L42.2417 28.0312H53.0092Z" fill="#808080"/>
<path d="M42.2846 28.313L39.9262 29.4962C39.9006 29.4925 39.8745 29.4959 39.8508 29.5063L42.2092 28.3231C42.2329 28.3127 42.259 28.3092 42.2846 28.313Z" fill="#858585"/>
<path d="M33.9717 42.1441L31.6133 43.3273C33.2425 41.9256 34.7303 40.3678 36.0553 38.6764L38.4137 37.4932C37.0887 39.1846 35.6009 40.7423 33.9717 42.1441Z" fill="#858585"/>
<path d="M47.3021 50.6024L44.9437 51.7857C44.6126 51.9659 44.2431 52.0645 43.8661 52.0732C42.8707 52.0732 41.8399 51.2987 39.8151 49.7686C37.3413 47.9046 31.737 43.6009 31.6133 43.3268L33.9717 42.1436C34.0954 42.4177 39.6997 46.7214 42.1735 48.5854C44.1983 50.1155 45.2291 50.8899 46.2245 50.8899C46.6015 50.8812 46.971 50.7827 47.3021 50.6024Z" fill="#858585"/>
<path d="M38.4137 37.4932C39.3181 38.0079 47.6005 44.3188 50.2477 46.262C51.254 46.9991 51.3135 47.5108 50.3193 48.3362C48.2648 50.0462 47.264 50.8905 46.2245 50.8905C45.2291 50.8905 44.1983 50.116 42.1735 48.5859C39.6997 46.7219 34.0954 42.4182 33.9717 42.1441C35.6009 40.7423 37.0887 39.1846 38.4137 37.4932Z" fill="white"/>
<path d="M18.2173 43.6911L15.8589 44.8743C16.2347 44.6033 18.2612 43.1382 19.4412 42.4225C24.3297 39.4619 28.7379 36.0019 31.6411 30.9672C31.7781 30.7296 31.912 30.486 32.0458 30.2393C32.3357 29.6435 32.5876 29.0301 32.8 28.4027C33.3592 26.8508 33.7888 25.2554 34.0844 23.6328L36.3684 21.8408C36.3123 22.3068 36.4459 21.7853 36.0421 24.2844C35.9114 25.0931 35.4478 26.4519 35.1584 27.2194C34.902 27.9291 34.6588 29.5367 34.0844 30.312C30.6242 34.9824 26.6881 38.2787 21.7996 41.2392C20.6196 41.955 18.5931 43.42 18.2173 43.6911Z" fill="#858585"/>
<path d="M21.5836 49.2161L19.2252 50.3993L15.8386 44.9869L18.197 43.8037L21.5836 49.2161Z" fill="#808080"/>
<path d="M52.6828 21.8408L53.0091 28.0313H42.2416C42.1712 28.0244 41.6123 29.6803 41.1993 30.7859C40.2726 33.2591 39.4503 34.505 37.8962 36.5822C35.6573 39.5702 32.8183 42.1743 29.5131 44.4769C27.6755 45.7592 23.5983 48.0832 22.1257 48.9086C21.7885 49.1035 21.5939 49.2106 21.5837 49.2162L18.1972 43.8038C18.1852 43.7861 18.1806 43.7644 18.1844 43.7434C18.1881 43.7224 18.1999 43.7036 18.2173 43.6911C18.5931 43.42 20.6197 41.955 21.7997 41.2392C26.6882 38.2787 31.0964 34.8187 33.9995 29.784C34.1365 29.5464 34.2661 29.3003 34.4042 29.056C34.9438 28.1018 35.4708 26.1196 35.7659 24.6543C36.2656 22.1725 36.3124 22.3068 36.3684 21.8408C36.3749 21.7991 52.6828 21.8408 52.6828 21.8408Z" fill="white"/>
<path d="M18.1972 43.8041L15.8388 44.9873C15.8268 44.9696 15.8222 44.948 15.826 44.9269C15.8297 44.9059 15.8415 44.8871 15.8589 44.8746L18.2173 43.6914C18.1999 43.7039 18.1881 43.7227 18.1844 43.7437C18.1806 43.7647 18.1852 43.7864 18.1972 43.8041Z" fill="#858585"/>
<path d="M48.2081 10.4512L45.8497 11.6344H44.0059L46.3643 10.4512H48.2081Z" fill="#808080"/>
<path d="M43.123 18.0702L40.7646 19.2534C39.8483 19.7096 38.8377 19.9449 37.8138 19.9402C37.7986 19.9402 37.7828 19.9402 37.7675 19.9401C34.064 19.9157 31.211 17.0496 31.1992 13.3429C31.1981 12.1324 31.5344 10.9455 32.1706 9.91502C32.8067 8.88457 33.7175 8.05128 34.801 7.50843L37.1594 6.3252C36.0759 6.86804 35.1651 7.70134 34.529 8.73178C33.8928 9.76223 33.5565 10.9491 33.5576 12.1596C33.5694 15.8664 36.4224 18.7325 40.1259 18.7569C40.1412 18.757 40.1569 18.757 40.1722 18.757C41.1961 18.7616 42.2067 18.5264 43.123 18.0702Z" fill="#858585"/>
<path d="M48.1613 5.64453L48.2081 10.4508H46.3642C46.5281 11.0235 46.6143 11.6156 46.6205 12.2113C46.6595 15.8905 43.8293 18.7568 40.1722 18.7568C40.157 18.7568 40.1412 18.7568 40.1259 18.7567C36.4224 18.7323 33.5694 15.8662 33.5576 12.1595C33.5551 10.4505 34.226 8.80917 35.4254 7.59012C36.6249 6.37107 38.2565 5.6722 39.9677 5.64453C40.1645 5.64453 40.3616 5.65062 40.5554 5.66584L48.1613 5.64453Z" fill="white"/>
<path d="M76.0544 21.0156V32.4314H82.7646V35.9058H71.1667V21.0156H76.0544Z" fill="white"/>
<path d="M88.8329 28.3994H84.6907C84.6907 27.2137 85.1601 26.3106 86.0989 25.6901C87.0377 25.0697 88.5427 24.7596 90.6139 24.7596C91.3449 24.752 92.0753 24.8004 92.7989 24.9043C93.3242 24.9734 93.8347 25.127 94.3108 25.3592C94.6581 25.5337 94.9789 25.7565 95.2635 26.021C95.5187 26.2793 95.7008 26.6004 95.7916 26.9517C95.8936 27.2965 95.9663 27.6493 96.009 28.0064C96.0478 28.4188 96.0651 28.833 96.0609 29.2473V34.3139C96.0498 34.586 96.0813 34.8582 96.1541 35.1206C96.2601 35.3545 96.4285 35.5547 96.6407 35.6995V35.9064H92.1879L91.9808 34.7483C90.9314 35.7273 89.5715 36.2167 87.9008 36.2166C86.796 36.2166 85.8744 35.9374 85.1359 35.3791C84.3971 34.8207 84.0278 34.0106 84.0278 32.949C84.0006 32.266 84.2009 31.5933 84.5975 31.0361C84.9547 30.5493 85.4538 30.1845 86.0264 29.9917C86.6358 29.7893 87.2587 29.6304 87.8906 29.516C88.5068 29.399 89.1291 29.3161 89.7545 29.268C90.2459 29.2455 90.7296 29.1369 91.1834 28.9474C91.5631 28.7752 91.753 28.5374 91.7531 28.2339C91.7531 27.6412 91.2836 27.3448 90.3447 27.3446C89.4196 27.3446 88.9156 27.6962 88.8329 28.3994ZM91.7531 31.1085C91.3014 31.3008 90.8287 31.4396 90.3447 31.522C89.858 31.6008 89.3864 31.7544 88.9467 31.9771C88.7933 32.0667 88.6682 32.1977 88.5858 32.3549C88.5035 32.5122 88.467 32.6894 88.4808 32.8664C88.4795 32.9996 88.5132 33.1308 88.5786 33.247C88.644 33.3631 88.7388 33.4601 88.8535 33.5281C89.1531 33.7071 89.499 33.7934 89.8477 33.7762C90.5654 33.7762 91.0624 33.5556 91.3388 33.1144C91.6149 32.6733 91.753 32.0047 91.7531 31.1085V31.1085Z" fill="white"/>
<path d="M102.274 25.0699V26.7657C103.268 25.4286 104.49 24.7599 105.939 24.7598C108.742 24.7598 110.144 26.3108 110.144 29.4129V35.9066H105.836V30.178C105.836 28.8271 105.332 28.1515 104.324 28.1513C103.689 28.1513 103.251 28.3375 103.009 28.7098C102.767 29.082 102.646 29.6404 102.646 30.3849V35.9066H98.3386V25.0699H102.274Z" fill="white"/>
<path d="M112.567 36.4642H116.895C116.978 36.9605 117.379 37.2087 118.097 37.2086C118.718 37.2086 119.163 37.0501 119.432 36.733C119.702 36.4157 119.836 35.8712 119.836 35.0993V34.21C119.049 34.9958 118.014 35.3887 116.729 35.3888C115.28 35.3888 114.131 34.8959 113.281 33.9101C112.432 32.9245 112.008 31.7078 112.007 30.26C112.004 29.5855 112.094 28.9137 112.277 28.2643C112.453 27.6433 112.726 27.0536 113.085 26.5167C113.464 25.9614 113.986 25.5185 114.596 25.2346C115.302 24.9051 116.075 24.7423 116.854 24.759C117.498 24.7577 118.132 24.9176 118.697 25.2241C119.272 25.5305 119.769 25.9659 120.147 26.4962V25.0691H123.937V33.7963C123.937 34.4306 123.92 34.9546 123.885 35.3681C123.843 35.8254 123.763 36.2784 123.647 36.7227C123.548 37.1596 123.354 37.5692 123.077 37.9222C122.79 38.2609 122.455 38.5568 122.083 38.801C121.601 39.1057 121.062 39.3097 120.499 39.4009C119.747 39.5337 118.984 39.596 118.221 39.587C116.439 39.587 115.079 39.2871 114.141 38.6873C113.202 38.0876 112.677 37.3466 112.567 36.4642ZM118.014 27.8404C116.881 27.8404 116.315 28.6607 116.315 30.3014C116.298 30.8345 116.45 31.3595 116.75 31.8006C116.892 32.0005 117.082 32.1613 117.303 32.268C117.524 32.3747 117.769 32.4238 118.014 32.4107C118.635 32.4107 119.094 32.197 119.391 31.7697C119.701 31.2976 119.856 30.7412 119.836 30.1772C119.859 29.5883 119.708 29.0056 119.401 28.5021C119.111 28.061 118.649 27.8404 118.014 27.8404Z" fill="white"/>
<path d="M126.215 25.0693H130.523V30.922C130.523 31.6389 130.647 32.1456 130.895 32.442C131.144 32.7386 131.537 32.8868 132.076 32.8867C132.669 32.8867 133.09 32.6729 133.339 32.2455C133.588 31.8183 133.712 31.1635 133.712 30.2809V25.0693H138.02V35.906H134.023V34.3135C133.498 35.0445 132.945 35.5442 132.366 35.8129C131.786 36.0817 131.034 36.2161 130.108 36.2162C128.893 36.2162 127.94 35.837 127.25 35.0788C126.559 34.3206 126.214 33.1832 126.215 31.6665V25.0693Z" fill="white"/>
<path d="M144.585 28.3994H140.443C140.443 27.2137 140.912 26.3106 141.851 25.6901C142.79 25.0697 144.295 24.7596 146.366 24.7596C147.097 24.752 147.828 24.8004 148.551 24.9043C149.077 24.9734 149.587 25.127 150.063 25.3592C150.411 25.5336 150.731 25.7564 151.016 26.021C151.271 26.2792 151.453 26.6003 151.544 26.9517C151.646 27.2965 151.719 27.6493 151.761 28.0064C151.8 28.4188 151.818 28.833 151.813 29.2473V34.3139C151.802 34.586 151.834 34.8581 151.906 35.1206C152.013 35.3543 152.181 35.5546 152.393 35.6995V35.9064H147.941L147.733 34.7483C146.684 35.7273 145.324 36.2167 143.653 36.2166C142.548 36.2166 141.627 35.9374 140.888 35.3791C140.15 34.8207 139.78 34.0106 139.78 32.949C139.753 32.266 139.953 31.5933 140.35 31.0361C140.707 30.5493 141.206 30.1845 141.779 29.9917C142.388 29.7893 143.011 29.6304 143.643 29.516C144.259 29.399 144.881 29.3162 145.507 29.268C145.998 29.2455 146.482 29.137 146.936 28.9474C147.316 28.7752 147.505 28.5374 147.505 28.2339C147.505 27.6412 147.036 27.3448 146.097 27.3446C145.172 27.3446 144.668 27.6962 144.585 28.3994ZM147.505 31.1085C147.054 31.3009 146.581 31.4397 146.097 31.522C145.61 31.6009 145.139 31.7544 144.699 31.9771C144.546 32.0668 144.421 32.1977 144.338 32.355C144.256 32.5122 144.22 32.6894 144.233 32.8664C144.232 32.9996 144.266 33.1309 144.331 33.247C144.396 33.3632 144.491 33.4601 144.606 33.5281C144.906 33.7071 145.251 33.7934 145.6 33.7762C146.318 33.7762 146.815 33.5556 147.091 33.1144C147.367 32.6733 147.505 32.0047 147.505 31.1085V31.1085Z" fill="white"/>
<path d="M154.236 36.4642H158.564C158.647 36.9605 159.048 37.2087 159.766 37.2086C160.387 37.2086 160.832 37.0501 161.102 36.733C161.371 36.4157 161.505 35.8712 161.506 35.0993V34.21C160.718 34.9958 159.683 35.3887 158.399 35.3888C156.949 35.3888 155.8 34.8959 154.951 33.9101C154.101 32.9245 153.677 31.7078 153.677 30.26C153.673 29.5855 153.763 28.9137 153.946 28.2643C154.122 27.6433 154.395 27.0537 154.754 26.5167C155.133 25.9615 155.655 25.5187 156.265 25.2346C156.971 24.9051 157.744 24.7424 158.523 24.759C159.167 24.7576 159.801 24.9176 160.367 25.2241C160.942 25.5305 161.438 25.9659 161.816 26.4962V25.0691H165.606V33.7963C165.606 34.4306 165.589 34.9546 165.554 35.3681C165.512 35.8254 165.433 36.2784 165.316 36.7227C165.217 37.1596 165.023 37.5692 164.747 37.9222C164.459 38.261 164.124 38.5569 163.753 38.801C163.27 39.1057 162.731 39.3097 162.168 39.4009C161.416 39.5337 160.653 39.596 159.89 39.587C158.109 39.587 156.749 39.2871 155.81 38.6873C154.871 38.0876 154.346 37.3466 154.236 36.4642ZM159.683 27.8404C158.551 27.8404 157.985 28.6607 157.985 30.3014C157.967 30.8345 158.119 31.3595 158.419 31.8006C158.561 32.0006 158.752 32.1614 158.973 32.268C159.193 32.3747 159.438 32.4238 159.683 32.4107C160.304 32.4107 160.763 32.197 161.06 31.7697C161.37 31.2976 161.526 30.7412 161.506 30.1772C161.529 29.5882 161.377 29.0055 161.07 28.5021C160.78 28.061 160.318 27.8404 159.683 27.8404Z" fill="white"/>
<path d="M180 31.4603H171.778C171.769 31.7445 171.819 32.0276 171.926 32.2912C172.033 32.5548 172.194 32.793 172.399 32.9906C172.598 33.1862 172.835 33.3401 173.094 33.4431C173.354 33.5461 173.632 33.5961 173.911 33.5903C174.684 33.5903 175.223 33.2732 175.527 32.639H179.648C179.5 33.2238 179.228 33.7696 178.849 34.2391C178.47 34.7086 177.993 35.0905 177.452 35.3586C176.269 35.9455 174.963 36.2398 173.642 36.2168C171.833 36.2168 170.352 35.7204 169.199 34.7278C168.046 33.7352 167.47 32.3565 167.47 30.5917C167.47 28.8409 168.053 27.4311 169.22 26.3625C170.387 25.2941 171.854 24.7599 173.621 24.7598C175.609 24.7598 177.169 25.363 178.302 26.5693C179.434 27.7759 180 29.4062 180 31.4603ZM171.778 29.2682H175.692C175.692 29.022 175.641 28.7786 175.543 28.5527C175.445 28.3269 175.302 28.1234 175.122 27.9549C174.95 27.7741 174.743 27.6304 174.513 27.5325C174.284 27.4347 174.036 27.3849 173.787 27.3861C173.151 27.3861 172.658 27.555 172.306 27.8928C172.127 28.0726 171.987 28.2878 171.896 28.5247C171.805 28.7616 171.765 29.0148 171.778 29.2682V29.2682Z" fill="white"/>
</symbol><symbol viewBox="0 0 30 30" fill="none" id="vk-fill" xmlns="http://www.w3.org/2000/svg">
<g clip-path="url(#cclip0_3826_2402)">
<path d="M0 14.4C0 7.61175 0 4.21766 2.10883 2.10883C4.21766 0 7.61175 0 14.4 0H15.6C22.3883 0 25.7823 0 27.8912 2.10883C30 4.21766 30 7.61175 30 14.4V15.6C30 22.3883 30 25.7823 27.8912 27.8912C25.7823 30 22.3883 30 15.6 30H14.4C7.61175 30 4.21766 30 2.10883 27.8912C0 25.7823 0 22.3883 0 15.6V14.4Z" fill="#0077FF"/>
<path d="M15.9624 21.6126C9.12494 21.6126 5.225 16.9251 5.0625 9.12506H8.4875C8.6 14.8501 11.1249 17.2751 13.1249 17.7751V9.12506H16.3501V14.0626C18.3251 13.8501 20.3998 11.6001 21.0998 9.12506H24.3249C23.7874 12.1751 21.5374 14.4251 19.9374 15.3501C21.5374 16.1001 24.1 18.0626 25.075 21.6126H21.5249C20.7624 19.2376 18.8626 17.4001 16.3501 17.1501V21.6126H15.9624Z" fill="white"/>
</g>
<defs>
<clipPath id="cclip0_3826_2402">
<rect width="30" height="30" fill="white"/>
</clipPath>
</defs>
</symbol><symbol viewBox="0 0 50 50" fill="none" id="warning" xmlns="http://www.w3.org/2000/svg">
<path d="M24.9014 4.16666C13.4681 4.16666 4.16602 13.5125 4.16602 25C4.16602 36.4875 13.5118 45.8333 24.9993 45.8333C36.4868 45.8333 45.8327 36.4875 45.8327 25C45.8327 13.5125 36.4431 4.16666 24.9014 4.16666ZM24.9993 41.6667C15.8098 41.6667 8.33268 34.1896 8.33268 25C8.33268 15.8104 15.7639 8.33332 24.9014 8.33332C34.1473 8.33332 41.666 15.8104 41.666 25C41.666 34.1896 34.1889 41.6667 24.9993 41.6667Z" fill="#78258D"/>
<path d="M22.916 14.5833H27.0827V29.1667H22.916V14.5833ZM22.916 31.25H27.0827V35.4167H22.916V31.25Z" fill="#78258D"/>
</symbol><symbol viewBox="0 0 28 29" fill="none" id="yandex" xmlns="http://www.w3.org/2000/svg">
<path d="M28 14.4285C28 6.69648 21.732 0.428467 14 0.428467C6.26801 0.428467 0 6.69648 0 14.4285C0 22.1605 6.26801 28.4285 14 28.4285C21.732 28.4285 28 22.1605 28 14.4285Z" fill="#FC3F1D"/>
<path d="M15.9729 22.8425H18.8977V6.04248H14.6433C10.3647 6.04248 8.11667 8.24223 8.11667 11.4814C8.11667 14.0679 9.34948 15.5907 11.5492 17.1619L7.72992 22.8425H10.8966L15.151 16.4851L13.6764 15.494C11.8877 14.2853 11.0175 13.3427 11.0175 11.3121C11.0175 9.52335 12.2744 8.31468 14.6675 8.31468H15.9729V22.8425Z" fill="white"/>
</symbol></svg>